<?xml version="1.0" encoding="UTF-8"?>
<svg id="Layer_1" data-name="Layer 1" xmlns="http://www.w3.org/2000/svg" xmlns:xlink="http://www.w3.org/1999/xlink" version="1.1" viewBox="0 0 500 500">
  <defs>
    <style>
      .cls-1 {
        clip-path: url(#clippath);
      }

      .cls-2 {
        fill: none;
      }

      .cls-2, .cls-3, .cls-4 {
        stroke-width: 0px;
      }

      .cls-3 {
        fill: #012f86;
      }

      .cls-5 {
        clip-path: url(#clippath-1);
      }

      .cls-6 {
        isolation: isolate;
      }

      .cls-4 {
        fill: #fff;
      }
    </style>
    <clipPath id="clippath">
      <rect class="cls-2" y="120" width="496" height="245"/>
    </clipPath>
    <clipPath id="clippath-1">
      <rect class="cls-2" x="487" y="306.7" width="11" height="12"/>
    </clipPath>
  </defs>
  <rect class="cls-4" x="-50" y="-50" width="600" height="600"/>
  <rect class="cls-4" x="-50" y="-50" width="600" height="600"/>
  <g class="cls-1">
    <image class="cls-6" width="875" height="875" transform="translate(-57.6 -52.7) scale(.7)" xlink:href="Reef Arch Logo patent-1.png"/>
  </g>
  <path class="cls-3" d="M494.4,311c0-.2,0-.4-.1-.6,0-.2-.2-.3-.3-.5-.1-.1-.3-.2-.5-.3-.2,0-.4-.1-.6-.1h-2.1c-.1,0-.2,0-.2.2v5.1c0,.1,0,.2.2.2s.2,0,.2-.2v-2.4h1.9c.3,0,.6.1.8.3.2.2.3.5.3.8v1.2c0,.1,0,.2.2.2s.2,0,.2-.2v-1.2c0-.6-.3-1-.8-1.3.5-.3.8-.7.8-1.3ZM492.9,312.1h-1.9v-2.2h1.9c.3,0,.6.1.8.3.2.2.3.5.3.8s-.1.6-.3.8c-.2.2-.5.3-.8.3Z"/>
  <g class="cls-5">
    <path class="cls-3" d="M492.5,306.8c-.4,0-.7,0-1.1.1-.4,0-.7.2-1,.3-.3.1-.7.3-1,.5-.3.2-.6.4-.8.7s-.5.5-.7.8c-.2.3-.4.6-.5,1-.1.3-.2.7-.3,1,0,.4-.1.7-.1,1.1.3,7.3,10.7,7.3,11,0,0-.4,0-.7-.1-1.1,0-.4-.2-.7-.3-1s-.3-.7-.5-1c-.2-.3-.4-.6-.7-.8s-.5-.5-.8-.7c-.3-.2-.6-.4-1-.5-.3-.1-.7-.2-1-.3-.4,0-.7-.1-1.1-.1ZM492.5,317.4c-.7,0-1.3-.1-2-.4s-1.2-.6-1.7-1.1-.8-1-1.1-1.7c-.3-.6-.4-1.3-.4-2,.3-6.8,10-6.8,10.2,0,0,.7-.1,1.3-.4,2s-.6,1.2-1.1,1.7-1,.8-1.7,1.1-1.3.4-2,.4Z"/>
  </g>
</svg>