<svg version="1.1" id="Layer_1" xmlns="http://www.w3.org/2000/svg" xmlns:xlink="http://www.w3.org/1999/xlink" x="0px" y="0px"
	 width="100%" viewBox="0 0 896 896" enable-background="new 0 0 896 896" xml:space="preserve">
<path fill="#000000" opacity="1.000000" stroke="none" 
	d="
M663.260620,698.383789 
	C647.996582,706.035339 632.375061,711.516235 615.942505,714.537231 
	C595.999939,718.203613 576.045776,718.176758 555.883789,715.773987 
	C542.713074,714.204346 530.126160,711.065491 517.727234,706.683960 
	C498.536499,699.902344 481.181244,689.943604 465.738159,676.679871 
	C447.648895,661.143494 433.591400,642.568420 424.189697,620.630005 
	C418.105164,606.432007 413.909241,591.769897 411.287750,576.392883 
	C409.041840,563.218933 409.827881,550.225281 409.802673,537.186829 
	C409.599396,432.053772 409.699951,326.920074 409.704895,221.786591 
	C409.705231,214.772934 409.703186,214.761032 416.558929,214.746033 
	C430.720947,214.715073 444.884369,214.789932 459.044098,214.594925 
	C463.143860,214.538467 464.415344,215.804718 464.404297,220.067886 
	C464.239990,283.547119 464.261139,347.026825 464.265717,410.506439 
	C464.265808,411.933258 463.799866,413.534973 465.449066,414.974976 
	C468.842957,413.276672 470.742432,409.824249 473.446655,407.335602 
	C491.066742,391.120239 511.238708,380.000244 534.685730,374.487762 
	C559.452393,368.665131 584.336975,367.407867 609.466980,370.758240 
	C638.219421,374.591553 663.870300,385.851227 687.088745,403.184143 
	C711.941650,421.737274 730.470581,445.303253 743.177856,473.364624 
	C755.924133,501.512146 760.985596,531.213379 757.153076,561.933533 
	C752.952026,595.607422 740.736084,626.327881 719.389404,652.912354 
	C705.951843,669.647095 689.996460,683.727417 670.953735,694.017334 
	C668.470337,695.359253 666.049316,696.816711 663.260620,698.383789 
M593.870117,668.084595 
	C613.111450,667.236511 630.597778,660.937378 646.736023,650.734558 
	C661.341614,641.500732 672.708679,629.149231 681.560303,614.297607 
	C686.715332,605.648193 690.364319,596.470520 693.389893,586.937256 
	C698.169128,571.878235 700.239197,556.318359 699.294617,540.739075 
	C698.313477,524.556580 695.234619,508.622498 688.858643,493.358093 
	C678.670532,468.967163 662.645081,449.648163 639.912354,436.522339 
	C611.885193,420.339478 581.520752,417.287140 550.221130,424.209320 
	C520.381348,430.808685 497.116699,447.373596 480.619720,473.064056 
	C471.202240,487.729736 464.855438,503.620667 461.948730,521.030762 
	C458.556610,541.348389 458.510803,561.258423 464.142426,581.220520 
	C472.359833,610.348267 488.731476,633.495728 514.090637,649.924133 
	C538.077515,665.463623 564.413574,671.889343 593.870117,668.084595 
z"/>
<path fill="#000000" opacity="1.000000" stroke="none" 
	d="
M288.430725,276.533081 
	C274.060333,255.259338 258.726868,235.160416 241.705231,216.492722 
	C243.920776,214.407089 245.114532,215.146317 246.250763,215.846924 
	C266.232605,228.167709 286.752930,239.858749 303.321136,256.800018 
	C324.831848,278.795105 339.931396,304.661224 349.509888,334.036346 
	C360.116333,366.563904 369.811523,399.375153 380.579773,431.847137 
	C382.294739,437.018585 380.747681,439.076416 375.558319,437.820984 
	C359.392059,433.910004 342.763153,432.787628 326.515228,429.381561 
	C312.298950,426.401367 298.911865,421.084625 285.448395,415.821350 
	C256.729523,404.594177 234.959885,384.429932 215.993149,361.158356 
	C193.498489,333.558167 168.806595,308.226959 142.146652,284.721893 
	C135.028976,278.446503 127.968445,272.106140 120.902565,265.772308 
	C120.314865,265.245544 119.887505,264.539856 118.885384,263.296661 
	C123.838005,261.375366 128.372604,262.358032 132.726364,262.960052 
	C165.515198,267.493896 195.555328,280.492767 225.590012,293.445221 
	C246.270584,302.363800 265.946289,313.024017 284.300995,326.222137 
	C304.055542,340.426971 320.049713,358.536957 337.210419,375.454010 
	C339.431488,377.643555 341.645660,379.840088 344.288971,381.734650 
	C328.163147,345.435608 310.359711,310.097443 288.430725,276.533081 
z"/>
</svg>