<svg version="1.1" id="Layer_1" xmlns="http://www.w3.org/2000/svg" xmlns:xlink="http://www.w3.org/1999/xlink" x="0px" y="0px"
	 width="100%" viewBox="0 0 5717 5826" enable-background="new 0 0 5717 5826" xml:space="preserve">
<path fill="#000000" opacity="1.000000" stroke="none" 
	d="
M2860.000000,4.000000 
	C2861.777344,4.000000 2863.554688,4.000000 2867.464355,5.157638 
	C2893.030029,17.450420 2916.413086,28.692362 2939.904541,39.703648 
	C3130.560303,129.071732 3327.370605,202.297943 3528.445801,264.409546 
	C3668.963379,307.815002 3810.925781,345.868622 3954.272949,378.587128 
	C4036.670166,397.393951 4119.426270,414.737183 4202.325684,431.200378 
	C4268.252930,444.292969 4334.547852,455.621185 4400.856445,466.671783 
	C4457.332031,476.083557 4514.031250,484.168793 4570.684570,492.480438 
	C4603.629395,497.313782 4636.650879,501.652374 4669.687012,505.824005 
	C4708.670898,510.746582 4747.679199,515.499390 4786.729492,519.854980 
	C4819.157715,523.471924 4851.629395,526.785217 4884.140137,529.551392 
	C4928.584473,533.333008 4973.065430,536.726196 5017.564453,539.797363 
	C5051.434570,542.135010 5085.360352,543.652100 5119.250977,545.713379 
	C5122.945312,545.938110 5126.566895,547.348755 5130.814941,548.348877 
	C5130.814941,557.278503 5130.814941,565.248169 5130.814941,573.217773 
	C5130.814941,1411.089722 5130.842285,2248.961670 5130.747559,3086.833740 
	C5130.742188,3136.122314 5129.592773,3185.409668 5129.273926,3234.699463 
	C5128.858887,3298.780273 5122.388672,3362.292480 5112.350586,3425.515625 
	C5098.328125,3513.832031 5076.177246,3600.109863 5047.500488,3684.743164 
	C5039.181641,3709.296387 5030.173340,3733.616211 5021.281250,3758.606201 
	C5028.824707,3761.450195 5036.173340,3764.220703 5045.715332,3767.818115 
	C4977.958496,3995.650391 4910.430176,4223.064941 4842.287109,4451.409668 
	C4775.345215,4432.486816 4709.927734,4412.887207 4643.543945,4396.171387 
	C4639.568848,4400.902344 4636.076660,4404.884766 4632.771484,4409.016113 
	C4526.088379,4542.398438 4410.901367,4668.039551 4287.999023,4786.584473 
	C4240.063477,4832.821289 4191.781250,4878.739746 4142.521973,4923.555664 
	C3999.490234,5053.686035 3849.587158,5175.537598 3695.112305,5291.789062 
	C3567.340820,5387.943848 3436.625977,5479.929199 3302.877930,5567.590820 
	C3167.537842,5656.295898 3030.221924,5741.736816 2887.895508,5818.914551 
	C2880.942871,5822.684570 2874.617676,5827.611816 2868.000000,5832.000000 
	C2868.000000,5832.000000 2866.000000,5832.000000 2864.099121,5830.976562 
	C2855.994873,5826.121094 2849.960449,5821.979004 2843.564209,5818.502930 
	C2698.971436,5739.926758 2559.301758,5653.205566 2421.942871,5562.739746 
	C2225.444580,5433.323730 2035.193726,5295.287109 1852.046875,5147.512695 
	C1663.622314,4995.479980 1483.995972,4833.854492 1317.218994,4658.162598 
	C1241.497681,4578.393066 1169.008667,4495.813477 1100.178589,4410.023926 
	C1096.502930,4405.442383 1092.537720,4401.093750 1088.250854,4396.105957 
	C1023.113342,4414.394531 958.562622,4432.518066 893.781555,4450.706543 
	C892.522705,4448.757324 891.016541,4447.266602 890.485840,4445.484863 
	C824.189880,4222.923828 757.963013,4000.342285 691.767456,3777.751465 
	C690.861145,3774.704590 690.392395,3771.527100 689.610413,3767.905273 
	C697.398438,3764.567139 704.344971,3761.589844 711.137573,3758.678467 
	C710.407898,3756.134277 710.135925,3754.827148 709.665405,3753.596191 
	C667.706787,3643.834473 635.902100,3531.365479 618.403381,3414.983643 
	C609.183167,3353.660889 602.870361,3292.114502 602.864075,3230.081543 
	C602.774048,2344.275391 602.802673,1458.469116 602.802856,572.662842 
	C602.802856,567.997192 602.635132,563.323303 602.859802,558.668457 
	C603.044067,554.851257 603.696472,551.056641 604.189880,546.836853 
	C607.600098,546.371521 610.153809,545.848267 612.729309,545.698853 
	C636.653198,544.311462 660.594055,543.186523 684.504761,541.605286 
	C734.988281,538.266968 785.556641,535.753174 835.906616,530.968872 
	C904.175232,524.481873 972.361145,516.904541 1040.417603,508.464813 
	C1112.435913,499.533722 1184.464355,490.321350 1256.119263,478.912689 
	C1348.127808,464.263428 1439.982422,448.428314 1531.510376,431.036469 
	C1633.475098,411.661530 1734.798706,389.113922 1835.712402,364.700928 
	C2009.736572,322.601196 2181.709473,273.542786 2351.208252,215.819672 
	C2521.401123,157.860184 2687.595947,90.164398 2849.385498,11.719594 
	C2853.238770,9.851310 2858.714355,9.625672 2860.000000,4.000000 
M894.781128,1473.999268 
	C894.781128,2050.640381 894.840088,2627.281250 894.687500,3203.922363 
	C894.672668,3260.012939 898.708069,3315.673096 907.221680,3371.106934 
	C923.172607,3474.967285 952.638794,3574.970947 991.968689,3672.220947 
	C993.162842,3675.173584 994.872437,3677.917725 996.754089,3681.556396 
	C1001.895935,3680.605225 1006.424561,3679.952393 1010.864502,3678.918701 
	C1089.927368,3660.514893 1168.984131,3642.085693 1248.014893,3623.544922 
	C1250.908081,3622.866455 1253.523560,3621.003174 1256.516235,3619.573730 
	C1254.279663,3614.070557 1252.612061,3609.753906 1250.785400,3605.505615 
	C1226.299194,3548.554688 1205.596558,3490.297852 1190.115601,3430.228760 
	C1170.242676,3353.118164 1160.109619,3274.935303 1160.147461,3195.123779 
	C1160.480957,2491.817383 1160.340698,1788.510742 1160.341553,1085.204224 
	C1160.341553,1078.537842 1160.257690,1071.869141 1160.409790,1065.206055 
	C1160.468384,1062.636475 1161.075806,1060.079468 1161.486206,1057.136108 
	C1164.509644,1056.537598 1167.013306,1055.912476 1169.554688,1055.558472 
	C1199.894165,1051.334351 1230.315918,1047.636719 1260.567871,1042.861450 
	C1340.155640,1030.298096 1419.705933,1017.487061 1499.204590,1004.371460 
	C1592.502808,988.979248 1685.228394,970.486267 1777.690918,950.783569 
	C1898.742920,924.988770 2019.088013,896.152222 2138.633789,864.031555 
	C2296.752197,821.546936 2453.108643,773.393372 2607.292969,718.277893 
	C2690.611084,688.494629 2773.090332,656.511414 2854.679443,622.275940 
	C2863.351562,618.637024 2870.683594,618.214600 2879.370361,622.025940 
	C2900.677979,631.374634 2922.327393,639.952148 2943.914795,648.652710 
	C3066.117432,697.904785 3190.165527,742.036194 3315.677734,782.052673 
	C3465.335693,829.767395 3616.515381,872.111511 3769.394775,908.188110 
	C3850.345703,927.290955 3931.526123,945.502991 4012.903076,962.695984 
	C4076.712158,976.177307 4140.900391,987.929504 4205.074219,999.600464 
	C4257.471680,1009.129639 4310.034180,1017.798767 4362.639160,1026.119019 
	C4412.621582,1034.024536 4462.776367,1040.832397 4512.808105,1048.433594 
	C4532.317383,1051.397339 4552.129883,1052.728149 4572.319824,1057.483398 
	C4572.319824,1065.749634 4572.319824,1073.005859 4572.319824,1080.261963 
	C4572.319824,1295.587036 4572.319824,1510.912231 4572.319336,1726.237305 
	C4572.319336,2218.218506 4572.305176,2710.199707 4572.336914,3202.180908 
	C4572.340820,3263.019775 4565.661133,3323.101562 4553.325684,3382.656006 
	C4537.461914,3459.246826 4512.536133,3532.876709 4481.984375,3604.724121 
	C4479.971191,3609.458740 4477.976074,3614.201660 4475.459473,3620.154785 
	C4497.563965,3627.082764 4519.208984,3630.212891 4540.328613,3635.390137 
	C4562.294922,3640.775146 4584.413086,3645.542969 4606.451172,3650.638184 
	C4627.847168,3655.584229 4649.195801,3660.742676 4670.622559,3665.551270 
	C4692.505371,3670.462402 4713.868652,3677.851074 4736.404297,3680.969238 
	C4738.083008,3677.393555 4739.382812,3675.104736 4740.269043,3672.665527 
	C4752.538574,3638.896973 4765.459961,3605.345215 4776.849609,3571.281006 
	C4818.152344,3447.751221 4838.741699,3320.733887 4838.754395,3190.489258 
	C4838.828613,2409.185791 4838.791016,1627.882080 4838.790039,846.578552 
	C4838.790039,840.578796 4838.881348,834.576538 4838.730469,828.580444 
	C4838.666016,826.001526 4838.090820,823.435303 4837.598145,819.740906 
	C4830.206055,818.686523 4823.045410,817.442749 4815.834473,816.673218 
	C4772.790527,812.078735 4729.660645,808.200623 4686.702148,802.921570 
	C4630.519531,796.017456 4574.386230,788.606812 4518.384277,780.373596 
	C4445.922852,769.720459 4373.401367,759.237244 4301.291504,746.495667 
	C4214.124023,731.093506 4127.278320,713.817505 4040.441895,696.603760 
	C3922.918945,673.306946 3806.480957,645.193726 3690.667969,614.628845 
	C3545.920898,576.427856 3402.619141,533.359375 3261.169922,484.198517 
	C3148.006348,444.868347 3036.238770,401.995483 2926.343018,354.273376 
	C2905.665771,345.294434 2885.035400,336.208496 2864.944824,327.417603 
	C2861.371094,329.022858 2858.961670,330.105225 2856.552246,331.187408 
	C2671.843750,414.139740 2482.124512,483.766174 2288.766357,543.518433 
	C2149.524658,586.547424 2008.852783,624.408386 1866.941528,657.695129 
	C1769.734985,680.495972 1672.225464,701.826233 1574.090210,720.196350 
	C1512.576782,731.711060 1450.980347,742.834351 1389.262573,753.187866 
	C1331.481323,762.880920 1273.541870,771.671814 1215.576294,780.209167 
	C1173.416626,786.418640 1131.151367,791.987000 1088.842529,797.088806 
	C1031.982056,803.945251 975.031372,810.052368 918.127136,816.548218 
	C910.424988,817.427429 902.445923,817.427673 894.781067,821.284180 
	C894.781067,1038.132935 894.781067,1254.065918 894.781128,1473.999268 
M2539.049805,4966.968750 
	C2473.500488,4918.926758 2407.387695,4871.631836 2342.520508,4822.686523 
	C2210.032959,4722.717773 2082.134277,4617.120117 1959.162598,4505.616211 
	C1887.591064,4440.719727 1817.613403,4374.161133 1750.593872,4304.527344 
	C1737.240723,4290.653320 1723.011108,4277.622559 1707.659180,4262.721680 
	C1612.251709,4277.844238 1515.767212,4297.334473 1419.361572,4317.241211 
	C1415.718750,4317.994141 1412.257690,4319.627441 1407.280273,4321.343750 
	C1412.425903,4327.560059 1416.504272,4332.708496 1420.811401,4337.657227 
	C1518.434937,4449.834473 1622.566650,4555.708984 1731.404419,4656.952637 
	C1886.679810,4801.394043 2050.198486,4935.979980 2219.902344,5063.077148 
	C2401.797363,5199.305176 2589.619141,5326.832031 2783.383789,5445.584473 
	C2810.613281,5462.272949 2838.096436,5478.548340 2865.639160,5495.122070 
	C2873.648682,5490.542480 2881.204346,5486.386719 2888.603271,5481.967773 
	C3013.265625,5407.520996 3135.338623,5329.029297 3255.175781,5247.053711 
	C3465.398926,5103.249512 3668.076172,4949.597168 3860.689941,4782.825195 
	C3925.150879,4727.012207 3988.473633,4669.914551 4049.818604,4610.708496 
	C4094.400879,4567.681152 4137.926758,4523.541992 4181.350586,4479.335938 
	C4228.499512,4431.337402 4273.612305,4381.429199 4317.612305,4330.526367 
	C4320.024414,4327.735352 4321.900879,4324.480957 4324.201172,4321.192871 
	C4295.106934,4310.340332 4046.120850,4263.337402 4019.739014,4263.917969 
	C4018.552734,4265.408691 4016.655762,4268.186035 4014.374268,4270.600098 
	C3955.775146,4332.598633 3895.130615,4392.551270 3832.830078,4450.810547 
	C3686.707520,4587.455078 3532.917480,4714.979004 3373.312012,4835.514160 
	C3221.772217,4949.958496 3065.626221,5057.789551 2905.473145,5159.822754 
	C2892.588135,5168.031250 2879.534912,5175.975586 2866.096191,5184.330566 
	C2755.598389,5115.292480 2647.535645,5043.403320 2539.049805,4966.968750 
M3418.922852,2515.780029 
	C3460.897461,2516.072754 3502.918457,2514.915771 3544.737061,2519.970703 
	C3560.658447,2521.895264 3576.312256,2524.770996 3590.946533,2531.750000 
	C3607.874268,2539.822754 3618.051758,2553.012939 3620.414551,2571.642578 
	C3621.499268,2580.194580 3622.121338,2588.941895 3621.653076,2597.529541 
	C3620.061279,2626.722656 3607.720703,2643.416748 3579.913086,2651.627686 
	C3565.346436,2655.928467 3550.031494,2658.311035 3534.880371,2659.897217 
	C3495.716064,2663.997314 3456.355469,2663.623291 3417.025391,2663.473877 
	C3411.217041,2663.451904 3405.406738,2663.996826 3398.985596,2664.309082 
	C3398.572754,2668.652832 3398.033936,2671.888184 3397.998779,2675.128662 
	C3397.883301,2685.792480 3397.947998,2696.458496 3397.947754,2707.123535 
	C3397.947266,2815.108643 3397.907959,2923.093506 3398.037109,3031.078613 
	C3398.045410,3038.088623 3396.325195,3045.524658 3400.799316,3053.176025 
	C3406.147461,3053.176025 3411.421875,3053.207764 3416.695801,3053.171143 
	C3451.352783,3052.930176 3486.015381,3052.975342 3520.665771,3052.358643 
	C3587.486084,3051.169189 3653.542236,3043.289551 3718.541504,3027.640137 
	C3771.188232,3014.964600 3821.689697,2996.536865 3868.550781,2968.941162 
	C3943.060547,2925.062988 3996.937500,2863.798096 4025.367676,2781.498535 
	C4050.928955,2707.504883 4055.611572,2631.512695 4042.787109,2554.730957 
	C4033.819092,2501.038574 4010.807129,2453.359863 3973.134766,2413.389893 
	C3945.346924,2383.907471 3912.343994,2361.677490 3875.881592,2344.452393 
	C3840.227539,2327.609863 3802.881104,2315.780029 3764.366943,2307.467285 
	C3760.890869,2306.717041 3757.713623,2304.581787 3753.952393,2302.889648 
	C3755.370850,2301.562256 3755.780029,2300.905762 3756.356445,2300.683105 
	C3761.310791,2298.765625 3766.298340,2296.935059 3771.270264,2295.062988 
	C3811.304688,2279.991699 3849.542236,2261.508057 3884.135986,2236.012695 
	C3940.285156,2194.630615 3978.307861,2140.684082 3996.799561,2073.297852 
	C4015.126221,2006.512817 4016.777344,1939.032104 4002.491699,1871.461060 
	C3990.841797,1816.355469 3966.309326,1767.352051 3928.310547,1725.322754 
	C3892.830322,1686.078979 3849.902100,1657.464600 3801.839355,1636.252319 
	C3733.329590,1606.015503 3660.989014,1591.449219 3586.653564,1588.498169 
	C3526.749512,1586.120239 3466.697754,1587.453857 3406.711182,1587.234375 
	C3404.252930,1587.225342 3401.790771,1588.173462 3398.668701,1588.810791 
	C3398.409668,1594.697021 3397.996826,1599.937744 3397.979736,1605.179810 
	C3397.905762,1627.843018 3397.947510,1650.506714 3397.947510,1673.170166 
	C3397.947266,1767.157104 3397.902832,1861.144287 3398.037598,1955.130981 
	C3398.047852,1962.135010 3396.339111,1969.570557 3400.807617,1977.176270 
	C3406.885498,1977.176270 3412.822266,1977.054810 3418.752686,1977.196045 
	C3454.058838,1978.036743 3489.376953,1978.602783 3524.662109,1979.991943 
	C3537.925049,1980.514160 3551.295166,1982.119751 3564.272705,1984.859375 
	C3574.558594,1987.030640 3584.713867,1990.865112 3594.222900,1995.428223 
	C3608.996338,2002.517700 3617.288086,2015.120605 3620.185791,2031.192749 
	C3622.573486,2044.434692 3622.611084,2057.715088 3620.348145,2070.985840 
	C3617.733643,2086.318115 3610.130859,2098.598633 3596.405029,2105.974121 
	C3588.297119,2110.330566 3579.420410,2113.750977 3570.486816,2115.980225 
	C3547.118408,2121.811768 3523.164062,2123.588135 3499.142090,2123.944824 
	C3470.485840,2124.370361 3441.824219,2124.415771 3413.165527,2124.705811 
	C3408.707764,2124.750732 3404.254150,2125.218750 3398.579346,2125.565674 
	C3398.348877,2133.865723 3397.978271,2141.079834 3397.974121,2148.293945 
	C3397.931396,2222.950195 3397.947021,2297.606689 3397.947510,2372.262939 
	C3397.947754,2414.923584 3397.890381,2457.584717 3398.030518,2500.244873 
	C3398.047363,2505.281494 3396.297607,2510.949951 3402.024414,2515.780029 
	C3405.879150,2515.780029 3410.517334,2515.780029 3418.922852,2515.780029 
M2910.055664,2124.213379 
	C2897.399902,2124.214355 2884.741943,2124.088379 2872.089355,2124.295166 
	C2868.345215,2124.356201 2864.616699,2125.355225 2860.636475,2125.961914 
	C2860.417236,2130.323242 2860.106445,2133.599365 2860.109131,2136.875244 
	C2860.206787,2261.426758 2860.333008,2385.978027 2860.469727,2510.529541 
	C2860.470215,2511.186523 2860.546631,2511.905273 2860.822266,2512.482910 
	C2861.098389,2513.061035 2861.669189,2513.498779 2863.061523,2515.072754 
	C2865.328613,2515.226318 2868.514893,2515.629639 2871.701172,2515.630615 
	C2994.262939,2515.661377 3116.824707,2515.670898 3239.386475,2515.583252 
	C3243.110840,2515.580566 3246.834961,2514.518311 3250.701904,2513.928711 
	C3250.999756,2510.166260 3251.386963,2507.562988 3251.385254,2504.959473 
	C3251.302490,2379.739990 3251.186768,2254.520752 3251.054443,2129.301270 
	C3251.053955,2128.669922 3250.886963,2127.976074 3250.587646,2127.425537 
	C3250.279297,2126.858643 3249.713135,2126.432129 3249.261230,2125.940186 
	C3248.086914,2125.454590 3246.913330,2124.545410 3245.738525,2124.543945 
	C3135.172852,2124.389160 3024.607178,2124.303467 2910.055664,2124.213379 
M1830.153320,2124.291504 
	C1816.205933,2124.291504 1802.258423,2124.291504 1788.408081,2124.291504 
	C1787.392700,2127.092529 1786.145508,2128.929199 1786.143921,2130.766846 
	C1786.037354,2256.738525 1786.022705,2382.710205 1786.092773,2508.681885 
	C1786.093872,2510.532959 1787.257080,2512.383545 1787.809326,2514.029785 
	C1789.351440,2514.584229 1790.562256,2515.400879 1791.773438,2515.401123 
	C1918.414062,2515.430176 2045.054688,2515.398682 2171.695312,2515.346436 
	C2172.307617,2515.346191 2172.966553,2515.090820 2173.519775,2514.796875 
	C2174.098389,2514.489258 2174.575195,2513.990234 2176.071777,2512.798096 
	C2176.275391,2509.778564 2176.762207,2505.916748 2176.763672,2502.054932 
	C2176.803223,2380.075439 2176.809814,2258.096191 2176.728760,2136.116699 
	C2176.726318,2132.419434 2175.732666,2128.722656 2175.095703,2124.291504 
	C2060.590820,2124.291504 1947.352783,2124.291504 1830.153320,2124.291504 
M2621.999512,2515.398193 
	C2651.249268,2515.163086 2680.499023,2514.934326 2709.748291,2514.647217 
	C2710.302734,2514.641846 2710.850098,2513.944580 2712.458984,2512.850586 
	C2712.770020,2509.173584 2713.479004,2504.689453 2713.481201,2500.204834 
	C2713.538574,2379.018066 2713.535889,2257.831055 2713.465820,2136.644287 
	C2713.463623,2132.863525 2714.590088,2128.603027 2709.851562,2124.847656 
	C2708.291016,2124.737793 2705.718750,2124.397705 2703.146484,2124.398682 
	C2577.967041,2124.449463 2452.787354,2124.528320 2327.607910,2124.642090 
	C2327.035889,2124.642578 2326.437012,2125.138672 2325.899902,2125.480469 
	C2325.340820,2125.836426 2324.841309,2126.286377 2324.315674,2126.695068 
	C2322.105469,2148.867188 2322.652100,2498.815186 2324.919678,2513.451172 
	C2325.450684,2513.853027 2325.980469,2514.605713 2326.512451,2514.607666 
	C2423.674561,2514.906250 2520.837158,2515.151123 2621.999512,2515.398193 
M1785.831177,1662.002686 
	C1785.918335,1765.329712 1785.999634,1868.656616 1786.165527,1971.983521 
	C1786.167358,1973.171875 1787.265625,1974.358398 1787.859497,1975.542114 
	C1805.297485,1977.789917 2158.238037,1977.552979 2175.000244,1975.282104 
	C2177.542969,1956.856201 2177.453369,1605.234131 2174.901611,1588.460205 
	C2157.038086,1586.090332 1803.752930,1586.068115 1787.815918,1588.431885 
	C1787.246094,1589.626831 1786.189209,1590.817505 1786.178833,1592.017212 
	C1785.988281,1614.012817 1785.923096,1636.009644 1785.831177,1662.002686 
M3081.999268,1977.170410 
	C3136.614014,1977.068359 3191.229004,1976.975830 3245.843506,1976.802734 
	C3247.028809,1976.798950 3248.211182,1975.876221 3250.502441,1974.919922 
	C3250.773926,1971.633545 3251.318115,1967.800903 3251.374512,1963.961182 
	C3253.422119,1824.650024 3252.356689,1606.937744 3249.420898,1587.687500 
	C3245.221191,1587.313965 3240.737793,1586.592773 3236.250732,1586.570312 
	C3212.936279,1586.453735 3189.620850,1586.515137 3166.305908,1586.515137 
	C3071.713379,1586.515137 2977.121094,1586.490356 2882.528564,1586.566528 
	C2875.441895,1586.572144 2868.127686,1585.554688 2860.798340,1588.328003 
	C2860.521240,1591.762451 2860.132812,1594.327393 2860.133789,1596.892212 
	C2860.180908,1722.124878 2860.260254,1847.357422 2860.374023,1972.590088 
	C2860.374512,1973.161133 2860.868896,1973.760132 2861.213135,1974.294312 
	C2861.572266,1974.851685 2862.028564,1975.346313 2863.474609,1977.170654 
	C2934.289307,1977.170654 3006.144287,1977.170654 3081.999268,1977.170410 
M3070.000977,2662.538818 
	C3006.718994,2662.538818 2943.436768,2662.492432 2880.155029,2662.610352 
	C2873.776855,2662.622314 2866.980957,2661.018066 2860.681641,2665.073242 
	C2860.469727,2668.118652 2860.133545,2670.701660 2860.132812,2673.284668 
	C2860.104980,2796.518311 2860.094238,2919.751709 2860.171875,3042.985352 
	C2860.174072,3046.097900 2861.187744,3049.209961 2861.861572,3053.081055 
	C2989.861328,3053.081055 3117.048828,3053.088379 3244.236084,3053.012451 
	C3246.061035,3053.011230 3247.885254,3051.974121 3249.550537,3051.468994 
	C3252.434082,3032.111572 3253.507080,2809.405518 3251.367920,2675.890869 
	C3251.306152,2672.044678 3250.712646,2668.207031 3250.417480,2664.923340 
	C3248.185303,2663.930908 3247.008789,2662.952881 3245.829102,2662.948975 
	C3188.553223,2662.759521 3131.277344,2662.653809 3070.000977,2662.538818 
M2113.992676,3053.059570 
	C2123.992188,3053.059570 2133.993164,3053.153809 2143.991211,3053.033691 
	C2154.449951,3052.908203 2164.973633,3053.595703 2174.688965,3052.565918 
	C2175.727051,3049.822266 2176.563232,3048.643555 2176.563477,3047.465088 
	C2176.590576,2920.807617 2176.555908,2794.150146 2176.500000,2667.492676 
	C2176.499756,2666.884033 2176.245361,2666.221191 2175.937744,2665.681396 
	C2175.614258,2665.114258 2175.083740,2664.665039 2173.401611,2662.749756 
	C2048.131592,2662.749756 1921.614136,2662.741699 1795.096680,2662.808594 
	C1792.575317,2662.809814 1790.054443,2663.689453 1787.928589,2664.085693 
	C1787.123169,2666.003906 1786.219971,2667.201660 1786.170898,2668.433350 
	C1785.932373,2674.424805 1785.839478,2680.425049 1785.843872,2686.422363 
	C1785.933105,2807.078857 1786.041504,2927.735352 1786.187622,3048.391846 
	C1786.188354,3048.978760 1786.752686,3049.583496 1787.106934,3050.146484 
	C1787.446655,3050.687012 1787.855591,3051.184082 1789.231079,3053.059570 
	C1895.484497,3053.059570 2002.740479,3053.059570 2113.992676,3053.059570 
M2136.081543,3837.569336 
	C2132.059814,3805.864746 2128.309570,3774.122803 2123.940430,3742.466309 
	C2119.508545,3710.353027 2116.946045,3677.946533 2110.569336,3644.876953 
	C2083.325684,3649.828125 2056.752930,3649.904297 2029.953857,3656.845215 
	C2032.012695,3673.693359 2033.874756,3689.432861 2035.869141,3705.155518 
	C2040.645874,3742.810547 2045.476196,3780.458984 2050.300537,3818.108154 
	C2054.701416,3852.451172 2059.213623,3886.780518 2063.386230,3921.151123 
	C2063.775146,3924.355225 2066.338379,3928.829102 2060.234131,3931.757080 
	C2018.147339,3888.527588 1976.065308,3845.031738 1933.675293,3801.837891 
	C1891.286011,3758.645752 1849.601196,3714.749268 1806.675537,3672.162842 
	C1787.011230,3676.642090 1767.479736,3675.267090 1748.708374,3681.770264 
	C1766.220093,3820.014160 1783.610962,3957.346680 1801.045044,4094.673584 
	C1801.462524,4097.961426 1802.340942,4101.192383 1803.051392,4104.439941 
	C1803.191406,4105.080078 1803.449829,4105.744141 1803.830933,4106.268555 
	C1804.183838,4106.753418 1804.774414,4107.065918 1806.614746,4108.536133 
	C1831.613403,4106.091797 1857.724976,4102.903809 1884.941284,4098.095215 
	C1882.489868,4078.552490 1880.157837,4060.138428 1877.875488,4041.718018 
	C1875.582642,4023.212891 1873.403931,4004.693359 1871.056274,3986.195312 
	C1868.709106,3967.700439 1866.216187,3949.224365 1863.784546,3930.740234 
	C1861.352905,3912.257080 1858.260498,3893.830566 1856.672119,3875.275146 
	C1855.126709,3857.218750 1849.812744,3839.396240 1851.831055,3818.019775 
	C1882.538574,3848.326660 1910.286499,3877.698242 1938.610840,3906.484131 
	C1966.649780,3934.980225 1994.369873,3963.789551 2022.275513,3992.416748 
	C2050.581787,4021.455078 2078.943848,4050.439209 2107.428711,4079.597412 
	C2126.898438,4074.711426 2146.475586,4076.632812 2165.755127,4069.641357 
	C2155.895996,3992.935547 2146.139160,3917.026855 2136.081543,3837.569336 
M2985.870117,3799.747559 
	C2984.732666,3837.699219 2984.327148,3875.690186 2982.272705,3913.592285 
	C2979.702637,3961.011475 2978.391357,4014.389648 2980.890137,4028.887207 
	C2998.851074,4032.057617 3044.392090,4033.033447 3060.126465,4030.536133 
	C3065.284912,3977.266846 3062.293213,3923.485107 3067.847412,3866.022217 
	C3081.383057,3887.175781 3090.808350,3906.015381 3101.151611,3924.297852 
	C3111.637939,3942.832275 3121.892578,3961.497314 3132.282471,3980.086426 
	C3142.644531,3998.625000 3153.048584,4017.139893 3163.088135,4035.047607 
	C3205.941650,4039.566406 3247.091309,4040.392334 3261.315918,4036.865967 
	C3258.601318,4032.147949 3256.129883,4027.551025 3253.382812,4023.125244 
	C3221.780762,3972.214600 3190.108887,3921.347656 3158.564697,3870.401367 
	C3156.324707,3866.783447 3154.940918,3862.635254 3152.996338,3858.377686 
	C3194.824707,3849.422607 3219.015869,3823.295898 3232.742188,3785.787354 
	C3241.933350,3760.671143 3242.716309,3734.762451 3238.131348,3708.932373 
	C3230.338135,3665.028320 3204.392090,3636.182129 3162.133057,3622.009766 
	C3141.733887,3615.168701 3120.643311,3612.775391 3099.257324,3612.073975 
	C3069.303955,3611.091309 3039.358643,3609.865967 3009.405273,3608.887939 
	C3004.281738,3608.720459 2999.135010,3609.270020 2993.057617,3609.528320 
	C2989.687012,3672.486328 2988.301758,3734.270020 2985.870117,3799.747559 
M1393.340332,3904.750488 
	C1394.155640,3908.657471 1395.038208,3912.552002 1395.775513,3916.473633 
	C1402.537354,3952.445068 1408.623047,3988.559326 1416.205688,4024.356445 
	C1423.461914,4058.612061 1436.807129,4090.388916 1460.226318,4117.157227 
	C1477.837891,4137.286133 1499.427246,4150.929199 1525.697998,4156.755371 
	C1566.105591,4165.717773 1605.120972,4160.292969 1642.863892,4144.530762 
	C1682.960938,4127.785156 1708.545532,4098.047363 1719.948853,4056.097656 
	C1728.509888,4024.604248 1728.194458,3992.677490 1722.583008,3960.994629 
	C1709.700684,3888.257812 1696.037598,3815.656982 1682.234497,3743.087891 
	C1679.789673,3730.234863 1679.308960,3716.778076 1673.748047,3704.737061 
	C1647.678345,3707.132812 1607.178101,3715.320068 1594.743286,3720.865967 
	C1595.335938,3725.742676 1595.686157,3730.990967 1596.642456,3736.126465 
	C1606.511353,3789.118652 1616.686890,3842.054199 1626.337646,3895.085938 
	C1631.936157,3925.850098 1636.852417,3956.740479 1641.844849,3987.611572 
	C1644.426392,4003.575195 1643.305908,4019.530518 1639.959961,4035.270264 
	C1634.506470,4060.923340 1620.026733,4078.533447 1593.761963,4084.582520 
	C1585.418579,4086.503906 1576.744507,4087.613281 1568.187744,4087.845947 
	C1553.533936,4088.244385 1541.058960,4082.411621 1530.391113,4072.426270 
	C1520.454468,4063.125977 1513.011841,4051.941895 1508.608276,4039.342285 
	C1502.480347,4021.808105 1496.396118,4004.029785 1492.868042,3985.856445 
	C1479.805542,3918.569336 1468.032959,3851.032715 1455.183594,3783.702637 
	C1452.860718,3771.530273 1452.997803,3758.562744 1446.212769,3746.474609 
	C1419.940430,3749.941162 1394.199219,3755.362793 1367.571045,3760.825195 
	C1368.501831,3767.382812 1369.058472,3772.561035 1369.990356,3777.671143 
	C1377.512573,3818.917725 1385.105591,3860.151855 1393.340332,3904.750488 
M2921.593262,3680.203125 
	C2922.713623,3678.002441 2924.771484,3675.814209 2924.800781,3673.598877 
	C2924.987061,3659.618652 2924.817627,3645.630859 2924.570557,3631.649170 
	C2924.444336,3624.500000 2923.913086,3617.357910 2923.515137,3609.185547 
	C2919.215332,3608.956543 2916.027832,3608.618652 2912.843262,3608.642090 
	C2847.581543,3609.121338 2782.319580,3609.619385 2717.059082,3610.222412 
	C2713.978516,3610.250732 2710.907227,3611.275146 2708.146973,3611.778320 
	C2705.715820,3636.021240 2708.381348,4012.347900 2711.121338,4030.708008 
	C2713.335693,4031.052246 2715.826904,4031.785156 2718.314941,4031.774902 
	C2784.916992,4031.501465 2851.519043,4031.183350 2918.119873,4030.715088 
	C2921.132812,4030.693848 2924.135010,4029.203613 2927.806396,4028.219971 
	C2927.279785,4004.970215 2928.186523,3982.545654 2926.983887,3959.282227 
	C2916.547119,3957.701904 2907.265625,3958.268555 2898.052002,3958.341553 
	C2866.755859,3958.589355 2835.461426,3959.044189 2804.165283,3959.274414 
	C2800.377686,3959.302246 2796.583984,3958.442871 2792.902344,3958.007568 
	C2792.357422,3955.037842 2791.715576,3953.124756 2791.697510,3951.205566 
	C2791.391602,3918.576172 2791.114014,3885.945801 2791.018311,3853.315186 
	C2791.011475,3850.965332 2792.455566,3848.611084 2793.276611,3846.101562 
	C2835.788818,3844.468262 2877.630859,3846.336670 2919.153320,3844.096680 
	C2921.890137,3823.022705 2921.541748,3789.034180 2918.334961,3772.853516 
	C2897.471924,3772.853516 2876.301758,3772.901367 2855.131836,3772.840332 
	C2834.096191,3772.779785 2813.001465,3775.260742 2790.802246,3772.578857 
	C2790.555176,3756.951172 2790.595459,3742.415527 2790.021240,3727.904297 
	C2789.426025,3712.854736 2787.830322,3697.810059 2791.158691,3681.819336 
	C2833.956299,3681.367920 2875.800049,3680.926758 2921.593262,3680.203125 
M2433.051025,3736.726318 
	C2417.565430,3699.342041 2402.080078,3661.957764 2386.248047,3623.736572 
	C2357.028320,3625.403320 2328.722656,3627.017822 2300.081787,3628.651367 
	C2300.323242,3631.859863 2299.959717,3634.016846 2300.687256,3635.703125 
	C2360.499268,3774.337158 2420.396240,3912.934570 2480.345215,4051.669434 
	C2497.051270,4051.797363 2512.855469,4052.298096 2529.455078,4048.622314 
	C2575.628174,3904.697266 2621.735596,3760.996094 2667.761475,3617.269043 
	C2668.321777,3615.519531 2667.831787,3613.433350 2667.831787,3611.697021 
	C2666.343750,3610.902100 2665.199707,3609.741455 2664.105225,3609.786865 
	C2639.484131,3610.803711 2614.863770,3611.871826 2590.256836,3613.180664 
	C2587.162354,3613.345215 2584.142334,3614.906006 2581.250977,3615.771240 
	C2574.356689,3640.419678 2567.655273,3664.070557 2561.136475,3687.771729 
	C2554.784180,3710.867676 2548.641357,3734.020508 2542.364014,3757.137207 
	C2535.913330,3780.891602 2529.864014,3804.767822 2522.803711,3828.340332 
	C2515.916016,3851.335938 2511.311279,3875.058350 2501.506836,3901.010742 
	C2478.235107,3844.947998 2456.340088,3792.200928 2433.051025,3736.726318 
M3425.983643,3693.638672 
	C3438.479736,3689.947998 3450.997070,3690.379150 3463.477783,3693.620117 
	C3483.161133,3698.731201 3496.005615,3713.142090 3508.025635,3728.315674 
	C3527.135986,3708.823242 3544.603516,3685.799316 3549.368652,3673.968750 
	C3541.749023,3663.802490 3531.770508,3656.009521 3521.125000,3649.151123 
	C3501.371826,3636.424316 3479.968750,3627.769287 3456.901611,3622.709961 
	C3397.113037,3609.596191 3332.957520,3640.242188 3313.328369,3707.408936 
	C3295.519775,3768.346191 3312.934570,3809.868652 3360.804932,3840.788574 
	C3366.952881,3844.759766 3373.152344,3848.694092 3379.584229,3852.171875 
	C3388.944580,3857.233398 3398.708740,3861.559814 3407.986328,3866.760498 
	C3418.411377,3872.604980 3429.048828,3878.319580 3438.591309,3885.435303 
	C3455.468262,3898.020508 3462.249512,3915.571289 3459.586426,3936.405518 
	C3455.720703,3966.647461 3433.901611,3994.455566 3394.548340,3987.934082 
	C3382.468506,3985.932129 3371.961182,3980.168701 3362.578857,3972.396973 
	C3350.551270,3962.433838 3341.706299,3950.148438 3335.513428,3935.798828 
	C3333.838379,3931.917969 3333.983398,3926.669189 3329.122314,3924.613525 
	C3309.008301,3938.676025 3283.914307,3960.426758 3274.268066,3972.410156 
	C3278.759521,3979.975342 3283.081299,3988.212891 3288.278809,3995.854492 
	C3323.554932,4047.717041 3372.205322,4069.868896 3434.482178,4060.465332 
	C3480.253418,4053.553955 3512.399170,4028.109131 3531.801758,3986.443848 
	C3542.083496,3964.364502 3546.288574,3940.754639 3546.567627,3916.565186 
	C3546.993408,3879.613037 3533.291016,3848.905029 3503.682373,3826.263672 
	C3492.615967,3817.800781 3480.699951,3810.345703 3468.683105,3803.258789 
	C3457.231934,3796.505615 3445.118652,3790.880859 3433.345947,3784.666748 
	C3422.084717,3778.722656 3411.570801,3771.736816 3403.194092,3761.960693 
	C3393.794189,3750.990234 3391.001953,3738.702393 3395.438721,3724.734375 
	C3399.993652,3710.394043 3409.524170,3700.928711 3425.983643,3693.638672 
M4075.447510,3919.742432 
	C4083.104492,3941.885742 4083.094238,3941.883789 4079.021973,3964.255859 
	C4070.201660,4012.708984 4061.341553,4061.154541 4052.636475,4109.628418 
	C4051.386963,4116.586426 4050.908203,4123.682617 4050.107422,4130.423340 
	C4077.990479,4137.856445 4116.060547,4143.946289 4130.449707,4143.237793 
	C4130.963867,4141.004395 4131.642578,4138.545898 4132.088379,4136.045410 
	C4141.659180,4082.319092 4151.370117,4028.616943 4160.632324,3974.837402 
	C4162.834473,3962.049805 4167.528809,3951.354736 4176.207520,3941.292236 
	C4225.803711,3883.789551 4274.817871,3825.784180 4323.872559,3767.816895 
	C4327.040527,3764.073242 4332.198730,3761.044189 4331.597656,3753.719238 
	C4300.898438,3748.451660 4270.647949,3741.784180 4239.841309,3737.872070 
	C4222.383789,3759.468018 4205.707031,3780.191650 4188.926270,3800.831055 
	C4171.866211,3821.813721 4155.241699,3843.168213 4136.231934,3865.298584 
	C4134.253418,3860.270020 4132.882812,3857.400879 4131.977539,3854.391113 
	C4118.759766,3810.437500 4105.637695,3766.454590 4092.379150,3722.513184 
	C4091.077637,3718.199219 4089.025879,3714.111572 4087.400879,3710.112061 
	C4071.389893,3707.187256 4056.419189,3704.007568 4041.305176,3701.818115 
	C4026.525391,3699.676758 4012.048096,3694.445068 3995.018555,3695.809814 
	C4021.777344,3770.392090 4048.020020,3843.536377 4075.447510,3919.742432 
M3945.471436,3760.054932 
	C3956.562500,3761.475098 3967.653564,3762.895264 3980.255127,3764.509033 
	C3983.213379,3740.294434 3988.538574,3717.852539 3988.723877,3693.304443 
	C3908.999512,3682.325439 3830.064941,3671.444336 3751.122314,3660.621094 
	C3747.953613,3660.186768 3744.710449,3660.295898 3740.427734,3660.103271 
	C3736.587646,3680.521973 3734.302246,3700.206543 3731.906494,3719.857910 
	C3731.464600,3723.482422 3732.451904,3727.280762 3732.747559,3730.632568 
	C3759.957275,3735.879883 3786.505859,3737.019531 3813.672363,3743.134766 
	C3811.546387,3760.554443 3809.680664,3776.970947 3807.505127,3793.345947 
	C3805.313965,3809.835938 3802.739014,3826.274658 3800.471924,3842.755127 
	C3798.204590,3859.235840 3796.122070,3875.741943 3793.935791,3892.233887 
	C3791.837158,3908.064209 3789.767822,3923.898926 3787.577881,3939.716797 
	C3785.296387,3956.194824 3782.809326,3972.644287 3780.552490,3989.125732 
	C3778.295410,4005.608398 3775.984619,4022.089111 3774.116699,4038.618164 
	C3772.270508,4054.956787 3767.911377,4071.077393 3768.657959,4088.328613 
	C3795.540283,4092.656006 3821.667969,4096.327637 3849.313232,4099.161621 
	C3853.233154,4069.659912 3856.950439,4041.355469 3860.765137,4013.064697 
	C3864.677246,3984.049072 3868.678711,3955.045654 3872.652344,3926.038330 
	C3876.535400,3897.690430 3880.113525,3869.295898 3884.414062,3841.011475 
	C3888.787842,3812.245117 3890.897705,3783.098633 3897.341064,3753.744629 
	C3913.039551,3755.866211 3927.488525,3757.818604 3945.471436,3760.054932 
M3607.759521,4069.795898 
	C3623.538574,4071.458740 3639.317627,4073.121338 3654.979736,4074.771729 
	C3656.338867,4072.059082 3657.793457,4070.393799 3657.987793,4068.592773 
	C3672.762939,3931.707275 3687.843018,3794.852783 3702.085205,3658.117676 
	C3676.462891,3651.635254 3634.598633,3647.597900 3620.049805,3650.116211 
	C3612.549316,3718.804932 3604.735596,3787.594238 3597.602783,3856.454102 
	C3590.413330,3925.860352 3582.115234,3995.162109 3575.509521,4066.074707 
	C3586.029053,4067.241699 3595.132324,4068.251465 3607.759521,4069.795898 
M2272.510010,3708.947754 
	C2271.067139,3684.474121 2268.487305,3660.119629 2266.076660,3636.044189 
	C2248.700928,3633.714111 2200.303711,3637.946289 2183.920898,3643.158936 
	C2195.958984,3781.440430 2208.014404,3919.925293 2220.189941,4059.786377 
	C2224.420654,4059.786377 2227.617432,4060.025635 2230.768799,4059.747803 
	C2252.659180,4057.816895 2274.545166,4055.828613 2296.415039,4053.679443 
	C2298.176270,4053.506104 2299.805420,4051.988037 2302.106201,4050.772705 
	C2300.912598,4034.891357 2299.890381,4019.039307 2298.501221,4003.219727 
	C2293.840332,3950.142090 2289.012451,3897.078857 2284.317383,3844.004150 
	C2280.443848,3800.216797 2276.666992,3756.420898 2272.510010,3708.947754 
z"/>
<path fill="#000000" opacity="1.000000" stroke="none" 
	d="
M2858.125488,4.000000 
	C2858.714355,9.625672 2853.238770,9.851310 2849.385498,11.719594 
	C2687.595947,90.164398 2521.401123,157.860184 2351.208252,215.819672 
	C2181.709473,273.542786 2009.736572,322.601196 1835.712402,364.700928 
	C1734.798706,389.113922 1633.475098,411.661530 1531.510376,431.036469 
	C1439.982422,448.428314 1348.127808,464.263428 1256.119263,478.912689 
	C1184.464355,490.321350 1112.435913,499.533722 1040.417603,508.464813 
	C972.361145,516.904541 904.175232,524.481873 835.906616,530.968872 
	C785.556641,535.753174 734.988281,538.266968 684.504761,541.605286 
	C660.594055,543.186523 636.653198,544.311462 612.729309,545.698853 
	C610.153809,545.848267 607.600098,546.371521 604.189880,546.836853 
	C603.696472,551.056641 603.044067,554.851257 602.859802,558.668457 
	C602.635132,563.323303 602.802856,567.997192 602.802856,572.662842 
	C602.802673,1458.469116 602.774048,2344.275391 602.864075,3230.081543 
	C602.870361,3292.114502 609.183167,3353.660889 618.403381,3414.983643 
	C635.902100,3531.365479 667.706787,3643.834473 709.665405,3753.596191 
	C710.135925,3754.827148 710.407898,3756.134277 711.137573,3758.678467 
	C704.344971,3761.589844 697.398438,3764.567139 689.610413,3767.905273 
	C690.392395,3771.527100 690.861145,3774.704590 691.767456,3777.751465 
	C757.963013,4000.342285 824.189880,4222.923828 890.485840,4445.484863 
	C891.016541,4447.266602 892.522705,4448.757324 893.781555,4450.706543 
	C958.562622,4432.518066 1023.113342,4414.394531 1088.250854,4396.105957 
	C1092.537720,4401.093750 1096.502930,4405.442383 1100.178589,4410.023926 
	C1169.008667,4495.813477 1241.497681,4578.393066 1317.218994,4658.162598 
	C1483.995972,4833.854492 1663.622314,4995.479980 1852.046875,5147.512695 
	C2035.193726,5295.287109 2225.444580,5433.323730 2421.942871,5562.739746 
	C2559.301758,5653.205566 2698.971436,5739.926758 2843.564209,5818.502930 
	C2849.960449,5821.979004 2855.994873,5826.121094 2863.099121,5830.976562 
	C1911.035767,5832.000000 958.071472,5832.000000 4.000000,5832.000000 
	C4.000000,5279.916992 4.000000,4727.833008 5.364451,4173.177734 
	C10.262324,4172.306641 13.993277,4173.688965 17.300610,4175.751465 
	C126.301254,4243.727539 235.265076,4311.762207 344.213287,4379.822754 
	C348.648560,4382.593262 352.878387,4385.693359 357.947357,4389.146484 
	C351.513336,4437.521973 343.460693,4485.376953 336.136749,4533.335449 
	C328.701172,4582.024414 320.967316,4630.668457 313.730957,4679.386230 
	C306.619080,4727.266602 298.375641,4774.993164 291.907959,4824.728516 
	C301.191223,4821.024414 308.613098,4818.252441 315.886292,4815.133301 
	C531.780823,4722.575195 752.041992,4641.881836 976.409485,4572.405273 
	C1026.591797,4556.865723 1077.124756,4542.459473 1127.463135,4527.420898 
	C1131.731812,4526.146484 1136.871948,4525.835449 1141.084717,4519.101562 
	C1104.795532,4519.101562 1070.837891,4519.288574 1036.883301,4519.049316 
	C1002.261353,4518.805664 967.597229,4519.073242 933.034912,4517.397949 
	C899.315857,4515.763672 865.450195,4518.446289 831.503845,4514.942383 
	C829.955933,4510.223633 828.635803,4506.506348 827.512512,4502.730469 
	C771.554199,4314.633789 715.623230,4126.529297 659.603577,3938.451172 
	C658.335632,3934.193604 656.083191,3930.229004 654.220215,3925.968506 
	C648.726379,3927.564697 644.203735,3928.694824 639.803223,3930.185303 
	C591.945862,3946.395020 543.978882,3962.292969 496.287537,3978.978271 
	C333.062408,4036.083496 171.930527,4098.576172 13.272764,4167.409668 
	C10.599669,4168.569336 7.109093,4167.845215 4.000000,4168.000000 
	C4.000000,2780.345947 4.000000,1392.691772 4.000000,4.000000 
	C954.750000,4.000000 1905.500366,4.000000 2858.125488,4.000000 
z"/>
<path fill="#000000" opacity="1.000000" stroke="none" 
	d="
M2869.874512,5832.000000 
	C2874.617676,5827.611816 2880.942871,5822.684570 2887.895508,5818.914551 
	C3030.221924,5741.736816 3167.537842,5656.295898 3302.877930,5567.590820 
	C3436.625977,5479.929199 3567.340820,5387.943848 3695.112305,5291.789062 
	C3849.587158,5175.537598 3999.490234,5053.686035 4142.521973,4923.555664 
	C4191.781250,4878.739746 4240.063477,4832.821289 4287.999023,4786.584473 
	C4410.901367,4668.039551 4526.088379,4542.398438 4632.771484,4409.016113 
	C4636.076660,4404.884766 4639.568848,4400.902344 4643.543945,4396.171387 
	C4709.927734,4412.887207 4775.345215,4432.486816 4842.287109,4451.409668 
	C4910.430176,4223.064941 4977.958496,3995.650391 5045.715332,3767.818115 
	C5036.173340,3764.220703 5028.824707,3761.450195 5021.281250,3758.606201 
	C5030.173340,3733.616211 5039.181641,3709.296387 5047.500488,3684.743164 
	C5076.177246,3600.109863 5098.328125,3513.832031 5112.350586,3425.515625 
	C5122.388672,3362.292480 5128.858887,3298.780273 5129.273926,3234.699463 
	C5129.592773,3185.409668 5130.742188,3136.122314 5130.747559,3086.833740 
	C5130.842285,2248.961670 5130.814941,1411.089722 5130.814941,573.217773 
	C5130.814941,565.248169 5130.814941,557.278503 5130.814941,548.348877 
	C5126.566895,547.348755 5122.945312,545.938110 5119.250977,545.713379 
	C5085.360352,543.652100 5051.434570,542.135010 5017.564453,539.797363 
	C4973.065430,536.726196 4928.584473,533.333008 4884.140137,529.551392 
	C4851.629395,526.785217 4819.157715,523.471924 4786.729492,519.854980 
	C4747.679199,515.499390 4708.670898,510.746582 4669.687012,505.824005 
	C4636.650879,501.652374 4603.629395,497.313782 4570.684570,492.480438 
	C4514.031250,484.168793 4457.332031,476.083557 4400.856445,466.671783 
	C4334.547852,455.621185 4268.252930,444.292969 4202.325684,431.200378 
	C4119.426270,414.737183 4036.670166,397.393951 3954.272949,378.587128 
	C3810.925781,345.868622 3668.963379,307.815002 3528.445801,264.409546 
	C3327.370605,202.297943 3130.560303,129.071732 2939.904541,39.703648 
	C2916.413086,28.692362 2893.030029,17.450420 2868.798340,5.157638 
	C3819.762695,4.000000 4771.525391,4.000000 5724.000000,4.000000 
	C5724.000000,1390.750244 5724.000000,2777.500732 5722.540527,4166.195312 
	C5715.717773,4165.515625 5710.480469,4162.587402 5704.972656,4160.312988 
	C5641.047852,4133.912598 5577.333984,4106.980957 5513.076660,4081.414307 
	C5374.655762,4026.338867 5234.426758,3976.191162 5093.016113,3929.342529 
	C5088.772461,3927.936768 5084.381836,3926.976318 5078.720703,3925.446289 
	C5019.969727,4122.841309 4961.589355,4318.990723 4903.020508,4515.773926 
	C4799.705078,4517.360352 4697.556641,4518.929688 4595.408691,4520.498535 
	C4651.706543,4540.648438 4709.004883,4556.508301 4765.520508,4574.864258 
	C4822.451172,4593.354492 4879.576172,4611.277344 4936.236328,4630.563477 
	C4993.511719,4650.059570 5050.531738,4670.353027 5107.274902,4691.348145 
	C5163.391113,4712.111816 5219.210449,4733.712891 5274.811035,4755.824707 
	C5330.228516,4777.863281 5385.212891,4800.991211 5442.505859,4824.511230 
	C5435.752930,4774.491211 5427.733887,4726.714844 5420.423340,4678.838867 
	C5412.987305,4630.143555 5405.520996,4581.453613 5398.060059,4532.761719 
	C5390.715820,4484.834961 5383.362305,4436.909668 5376.014648,4388.999023 
	C5382.678223,4384.701660 5388.209961,4381.035645 5393.836914,4377.521484 
	C5462.715820,4334.499023 5531.578125,4291.448730 5600.511230,4248.512207 
	C5641.613281,4222.910645 5682.833008,4197.497559 5724.000000,4172.000000 
	C5724.000000,4725.119141 5724.000000,5278.237793 5724.000000,5832.000000 
	C4773.250000,5832.000000 3822.499512,5832.000000 2869.874512,5832.000000 
z"/>
<path fill="#000000" opacity="1.000000" stroke="none" 
	d="
M5724.000000,4171.000000 
	C5682.833008,4197.497559 5641.613281,4222.910645 5600.511230,4248.512207 
	C5531.578125,4291.448730 5462.715820,4334.499023 5393.836914,4377.521484 
	C5388.209961,4381.035645 5382.678223,4384.701660 5376.014648,4388.999023 
	C5383.362305,4436.909668 5390.715820,4484.834961 5398.060059,4532.761719 
	C5405.520996,4581.453613 5412.987305,4630.143555 5420.423340,4678.838867 
	C5427.733887,4726.714844 5435.752930,4774.491211 5442.505859,4824.511230 
	C5385.212891,4800.991211 5330.228516,4777.863281 5274.811035,4755.824707 
	C5219.210449,4733.712891 5163.391113,4712.111816 5107.274902,4691.348145 
	C5050.531738,4670.353027 4993.511719,4650.059570 4936.236328,4630.563477 
	C4879.576172,4611.277344 4822.451172,4593.354492 4765.520508,4574.864258 
	C4709.004883,4556.508301 4651.706543,4540.648438 4595.408691,4520.498535 
	C4697.556641,4518.929688 4799.705078,4517.360352 4903.020508,4515.773926 
	C4961.589355,4318.990723 5019.969727,4122.841309 5078.720703,3925.446289 
	C5084.381836,3926.976318 5088.772461,3927.936768 5093.016113,3929.342529 
	C5234.426758,3976.191162 5374.655762,4026.338867 5513.076660,4081.414307 
	C5577.333984,4106.980957 5641.047852,4133.912598 5704.972656,4160.312988 
	C5710.480469,4162.587402 5715.717773,4165.515625 5722.540527,4168.070312 
	C5724.000000,4168.000000 5724.000000,4170.000000 5724.000000,4171.000000 
z"/>
<path fill="#000000" opacity="1.000000" stroke="none" 
	d="
M4.000000,4169.000000 
	C7.109093,4167.845215 10.599669,4168.569336 13.272764,4167.409668 
	C171.930527,4098.576172 333.062408,4036.083496 496.287537,3978.978271 
	C543.978882,3962.292969 591.945862,3946.395020 639.803223,3930.185303 
	C644.203735,3928.694824 648.726379,3927.564697 654.220215,3925.968506 
	C656.083191,3930.229004 658.335632,3934.193604 659.603577,3938.451172 
	C715.623230,4126.529297 771.554199,4314.633789 827.512512,4502.730469 
	C828.635803,4506.506348 829.955933,4510.223633 831.503845,4514.942383 
	C865.450195,4518.446289 899.315857,4515.763672 933.034912,4517.397949 
	C967.597229,4519.073242 1002.261353,4518.805664 1036.883301,4519.049316 
	C1070.837891,4519.288574 1104.795532,4519.101562 1141.084717,4519.101562 
	C1136.871948,4525.835449 1131.731812,4526.146484 1127.463135,4527.420898 
	C1077.124756,4542.459473 1026.591797,4556.865723 976.409485,4572.405273 
	C752.041992,4641.881836 531.780823,4722.575195 315.886292,4815.133301 
	C308.613098,4818.252441 301.191223,4821.024414 291.907959,4824.728516 
	C298.375641,4774.993164 306.619080,4727.266602 313.730957,4679.386230 
	C320.967316,4630.668457 328.701172,4582.024414 336.136749,4533.335449 
	C343.460693,4485.376953 351.513336,4437.521973 357.947357,4389.146484 
	C352.878387,4385.693359 348.648560,4382.593262 344.213287,4379.822754 
	C235.265076,4311.762207 126.301254,4243.727539 17.300610,4175.751465 
	C13.993277,4173.688965 10.262324,4172.306641 5.364451,4171.303711 
	C4.000000,4172.000000 4.000000,4170.000000 4.000000,4169.000000 
z"/>
<path fill="#000000" opacity="1.000000" stroke="none" 
	d="
M894.781128,1471.999146 
	C894.781067,1254.065918 894.781067,1038.132935 894.781067,821.284180 
	C902.445923,817.427673 910.424988,817.427429 918.127136,816.548218 
	C975.031372,810.052368 1031.982056,803.945251 1088.842529,797.088806 
	C1131.151367,791.987000 1173.416626,786.418640 1215.576294,780.209167 
	C1273.541870,771.671814 1331.481323,762.880920 1389.262573,753.187866 
	C1450.980347,742.834351 1512.576782,731.711060 1574.090210,720.196350 
	C1672.225464,701.826233 1769.734985,680.495972 1866.941528,657.695129 
	C2008.852783,624.408386 2149.524658,586.547424 2288.766357,543.518433 
	C2482.124512,483.766174 2671.843750,414.139740 2856.552246,331.187408 
	C2858.961670,330.105225 2861.371094,329.022858 2864.944824,327.417603 
	C2885.035400,336.208496 2905.665771,345.294434 2926.343018,354.273376 
	C3036.238770,401.995483 3148.006348,444.868347 3261.169922,484.198517 
	C3402.619141,533.359375 3545.920898,576.427856 3690.667969,614.628845 
	C3806.480957,645.193726 3922.918945,673.306946 4040.441895,696.603760 
	C4127.278320,713.817505 4214.124023,731.093506 4301.291504,746.495667 
	C4373.401367,759.237244 4445.922852,769.720459 4518.384277,780.373596 
	C4574.386230,788.606812 4630.519531,796.017456 4686.702148,802.921570 
	C4729.660645,808.200623 4772.790527,812.078735 4815.834473,816.673218 
	C4823.045410,817.442749 4830.206055,818.686523 4837.598145,819.740906 
	C4838.090820,823.435303 4838.666016,826.001526 4838.730469,828.580444 
	C4838.881348,834.576538 4838.790039,840.578796 4838.790039,846.578552 
	C4838.791016,1627.882080 4838.828613,2409.185791 4838.754395,3190.489258 
	C4838.741699,3320.733887 4818.152344,3447.751221 4776.849609,3571.281006 
	C4765.459961,3605.345215 4752.538574,3638.896973 4740.269043,3672.665527 
	C4739.382812,3675.104736 4738.083008,3677.393555 4736.404297,3680.969238 
	C4713.868652,3677.851074 4692.505371,3670.462402 4670.622559,3665.551270 
	C4649.195801,3660.742676 4627.847168,3655.584229 4606.451172,3650.638184 
	C4584.413086,3645.542969 4562.294922,3640.775146 4540.328613,3635.390137 
	C4519.208984,3630.212891 4497.563965,3627.082764 4475.459473,3620.154785 
	C4477.976074,3614.201660 4479.971191,3609.458740 4481.984375,3604.724121 
	C4512.536133,3532.876709 4537.461914,3459.246826 4553.325684,3382.656006 
	C4565.661133,3323.101562 4572.340820,3263.019775 4572.336914,3202.180908 
	C4572.305176,2710.199707 4572.319336,2218.218506 4572.319336,1726.237305 
	C4572.319824,1510.912231 4572.319824,1295.587036 4572.319824,1080.261963 
	C4572.319824,1073.005859 4572.319824,1065.749634 4572.319824,1057.483398 
	C4552.129883,1052.728149 4532.317383,1051.397339 4512.808105,1048.433594 
	C4462.776367,1040.832397 4412.621582,1034.024536 4362.639160,1026.119019 
	C4310.034180,1017.798767 4257.471680,1009.129639 4205.074219,999.600464 
	C4140.900391,987.929504 4076.712158,976.177307 4012.903076,962.695984 
	C3931.526123,945.502991 3850.345703,927.290955 3769.394775,908.188110 
	C3616.515381,872.111511 3465.335693,829.767395 3315.677734,782.052673 
	C3190.165527,742.036194 3066.117432,697.904785 2943.914795,648.652710 
	C2922.327393,639.952148 2900.677979,631.374634 2879.370361,622.025940 
	C2870.683594,618.214600 2863.351562,618.637024 2854.679443,622.275940 
	C2773.090332,656.511414 2690.611084,688.494629 2607.292969,718.277893 
	C2453.108643,773.393372 2296.752197,821.546936 2138.633789,864.031555 
	C2019.088013,896.152222 1898.742920,924.988770 1777.690918,950.783569 
	C1685.228394,970.486267 1592.502808,988.979248 1499.204590,1004.371460 
	C1419.705933,1017.487061 1340.155640,1030.298096 1260.567871,1042.861450 
	C1230.315918,1047.636719 1199.894165,1051.334351 1169.554688,1055.558472 
	C1167.013306,1055.912476 1164.509644,1056.537598 1161.486206,1057.136108 
	C1161.075806,1060.079468 1160.468384,1062.636475 1160.409790,1065.206055 
	C1160.257690,1071.869141 1160.341553,1078.537842 1160.341553,1085.204224 
	C1160.340698,1788.510742 1160.480957,2491.817383 1160.147461,3195.123779 
	C1160.109619,3274.935303 1170.242676,3353.118164 1190.115601,3430.228760 
	C1205.596558,3490.297852 1226.299194,3548.554688 1250.785400,3605.505615 
	C1252.612061,3609.753906 1254.279663,3614.070557 1256.516235,3619.573730 
	C1253.523560,3621.003174 1250.908081,3622.866455 1248.014893,3623.544922 
	C1168.984131,3642.085693 1089.927368,3660.514893 1010.864502,3678.918701 
	C1006.424561,3679.952393 1001.895935,3680.605225 996.754089,3681.556396 
	C994.872437,3677.917725 993.162842,3675.173584 991.968689,3672.220947 
	C952.638794,3574.970947 923.172607,3474.967285 907.221680,3371.106934 
	C898.708069,3315.673096 894.672668,3260.012939 894.687500,3203.922363 
	C894.840088,2627.281250 894.781128,2050.640381 894.781128,1471.999146 
z"/>
<path fill="#000000" opacity="1.000000" stroke="none" 
	d="
M2540.281250,4967.701172 
	C2647.535645,5043.403320 2755.598389,5115.292480 2866.096191,5184.330566 
	C2879.534912,5175.975586 2892.588135,5168.031250 2905.473145,5159.822754 
	C3065.626221,5057.789551 3221.772217,4949.958496 3373.312012,4835.514160 
	C3532.917480,4714.979004 3686.707520,4587.455078 3832.830078,4450.810547 
	C3895.130615,4392.551270 3955.775146,4332.598633 4014.374268,4270.600098 
	C4016.655762,4268.186035 4018.552734,4265.408691 4019.739014,4263.917969 
	C4046.120850,4263.337402 4295.106934,4310.340332 4324.201172,4321.192871 
	C4321.900879,4324.480957 4320.024414,4327.735352 4317.612305,4330.526367 
	C4273.612305,4381.429199 4228.499512,4431.337402 4181.350586,4479.335938 
	C4137.926758,4523.541992 4094.400879,4567.681152 4049.818604,4610.708496 
	C3988.473633,4669.914551 3925.150879,4727.012207 3860.689941,4782.825195 
	C3668.076172,4949.597168 3465.398926,5103.249512 3255.175781,5247.053711 
	C3135.338623,5329.029297 3013.265625,5407.520996 2888.603271,5481.967773 
	C2881.204346,5486.386719 2873.648682,5490.542480 2865.639160,5495.122070 
	C2838.096436,5478.548340 2810.613281,5462.272949 2783.383789,5445.584473 
	C2589.619141,5326.832031 2401.797363,5199.305176 2219.902344,5063.077148 
	C2050.198486,4935.979980 1886.679810,4801.394043 1731.404419,4656.952637 
	C1622.566650,4555.708984 1518.434937,4449.834473 1420.811401,4337.657227 
	C1416.504272,4332.708496 1412.425903,4327.560059 1407.280273,4321.343750 
	C1412.257690,4319.627441 1415.718750,4317.994141 1419.361572,4317.241211 
	C1515.767212,4297.334473 1612.251709,4277.844238 1707.659180,4262.721680 
	C1723.011108,4277.622559 1737.240723,4290.653320 1750.593872,4304.527344 
	C1817.613403,4374.161133 1887.591064,4440.719727 1959.162598,4505.616211 
	C2082.134277,4617.120117 2210.032959,4722.717773 2342.520508,4822.686523 
	C2407.387695,4871.631836 2473.500488,4918.926758 2540.281250,4967.701172 
z"/>
<path fill="#000000" opacity="1.000000" stroke="none" 
	d="
M3417.039307,2515.780029 
	C3410.517334,2515.780029 3405.879150,2515.780029 3402.024414,2515.780029 
	C3396.297607,2510.949951 3398.047363,2505.281494 3398.030518,2500.244873 
	C3397.890381,2457.584717 3397.947754,2414.923584 3397.947510,2372.262939 
	C3397.947021,2297.606689 3397.931396,2222.950195 3397.974121,2148.293945 
	C3397.978271,2141.079834 3398.348877,2133.865723 3398.579346,2125.565674 
	C3404.254150,2125.218750 3408.707764,2124.750732 3413.165527,2124.705811 
	C3441.824219,2124.415771 3470.485840,2124.370361 3499.142090,2123.944824 
	C3523.164062,2123.588135 3547.118408,2121.811768 3570.486816,2115.980225 
	C3579.420410,2113.750977 3588.297119,2110.330566 3596.405029,2105.974121 
	C3610.130859,2098.598633 3617.733643,2086.318115 3620.348145,2070.985840 
	C3622.611084,2057.715088 3622.573486,2044.434692 3620.185791,2031.192749 
	C3617.288086,2015.120605 3608.996338,2002.517700 3594.222900,1995.428223 
	C3584.713867,1990.865112 3574.558594,1987.030640 3564.272705,1984.859375 
	C3551.295166,1982.119751 3537.925049,1980.514160 3524.662109,1979.991943 
	C3489.376953,1978.602783 3454.058838,1978.036743 3418.752686,1977.196045 
	C3412.822266,1977.054810 3406.885498,1977.176270 3400.807617,1977.176270 
	C3396.339111,1969.570557 3398.047852,1962.135010 3398.037598,1955.130981 
	C3397.902832,1861.144287 3397.947266,1767.157104 3397.947510,1673.170166 
	C3397.947510,1650.506714 3397.905762,1627.843018 3397.979736,1605.179810 
	C3397.996826,1599.937744 3398.409668,1594.697021 3398.668701,1588.810791 
	C3401.790771,1588.173462 3404.252930,1587.225342 3406.711182,1587.234375 
	C3466.697754,1587.453857 3526.749512,1586.120239 3586.653564,1588.498169 
	C3660.989014,1591.449219 3733.329590,1606.015503 3801.839355,1636.252319 
	C3849.902100,1657.464600 3892.830322,1686.078979 3928.310547,1725.322754 
	C3966.309326,1767.352051 3990.841797,1816.355469 4002.491699,1871.461060 
	C4016.777344,1939.032104 4015.126221,2006.512817 3996.799561,2073.297852 
	C3978.307861,2140.684082 3940.285156,2194.630615 3884.135986,2236.012695 
	C3849.542236,2261.508057 3811.304688,2279.991699 3771.270264,2295.062988 
	C3766.298340,2296.935059 3761.310791,2298.765625 3756.356445,2300.683105 
	C3755.780029,2300.905762 3755.370850,2301.562256 3753.952393,2302.889648 
	C3757.713623,2304.581787 3760.890869,2306.717041 3764.366943,2307.467285 
	C3802.881104,2315.780029 3840.227539,2327.609863 3875.881592,2344.452393 
	C3912.343994,2361.677490 3945.346924,2383.907471 3973.134766,2413.389893 
	C4010.807129,2453.359863 4033.819092,2501.038574 4042.787109,2554.730957 
	C4055.611572,2631.512695 4050.928955,2707.504883 4025.367676,2781.498535 
	C3996.937500,2863.798096 3943.060547,2925.062988 3868.550781,2968.941162 
	C3821.689697,2996.536865 3771.188232,3014.964600 3718.541504,3027.640137 
	C3653.542236,3043.289551 3587.486084,3051.169189 3520.665771,3052.358643 
	C3486.015381,3052.975342 3451.352783,3052.930176 3416.695801,3053.171143 
	C3411.421875,3053.207764 3406.147461,3053.176025 3400.799316,3053.176025 
	C3396.325195,3045.524658 3398.045410,3038.088623 3398.037109,3031.078613 
	C3397.907959,2923.093506 3397.947266,2815.108643 3397.947754,2707.123535 
	C3397.947998,2696.458496 3397.883301,2685.792480 3397.998779,2675.128662 
	C3398.033936,2671.888184 3398.572754,2668.652832 3398.985596,2664.309082 
	C3405.406738,2663.996826 3411.217041,2663.451904 3417.025391,2663.473877 
	C3456.355469,2663.623291 3495.716064,2663.997314 3534.880371,2659.897217 
	C3550.031494,2658.311035 3565.346436,2655.928467 3579.913086,2651.627686 
	C3607.720703,2643.416748 3620.061279,2626.722656 3621.653076,2597.529541 
	C3622.121338,2588.941895 3621.499268,2580.194580 3620.414551,2571.642578 
	C3618.051758,2553.012939 3607.874268,2539.822754 3590.946533,2531.750000 
	C3576.312256,2524.770996 3560.658447,2521.895264 3544.737061,2519.970703 
	C3502.918457,2514.915771 3460.897461,2516.072754 3417.039307,2515.780029 
z"/>
<path fill="#000000" opacity="1.000000" stroke="none" 
	d="
M2912.048584,2124.213379 
	C3024.607178,2124.303467 3135.172852,2124.389160 3245.738525,2124.543945 
	C3246.913330,2124.545410 3248.086914,2125.454590 3249.260254,2125.942383 
	C3249.713135,2126.432129 3250.279297,2126.858643 3250.587646,2127.425537 
	C3250.886963,2127.976074 3251.053955,2128.669922 3251.054443,2129.301270 
	C3251.186768,2254.520752 3251.302490,2379.739990 3251.385254,2504.959473 
	C3251.386963,2507.562988 3250.999756,2510.166260 3250.701904,2513.928711 
	C3246.834961,2514.518311 3243.110840,2515.580566 3239.386475,2515.583252 
	C3116.824707,2515.670898 2994.262939,2515.661377 2871.701172,2515.630615 
	C2868.514893,2515.629639 2865.328613,2515.226318 2863.061523,2515.072754 
	C2861.669189,2513.498779 2861.098389,2513.061035 2860.822266,2512.482910 
	C2860.546631,2511.905273 2860.470215,2511.186523 2860.469727,2510.529541 
	C2860.333008,2385.978027 2860.206787,2261.426758 2860.109131,2136.875244 
	C2860.106445,2133.599365 2860.417236,2130.323242 2860.636475,2125.961914 
	C2864.616699,2125.355225 2868.345215,2124.356201 2872.089355,2124.295166 
	C2884.741943,2124.088379 2897.399902,2124.214355 2912.048584,2124.213379 
z"/>
<path fill="#000000" opacity="1.000000" stroke="none" 
	d="
M1832.134033,2124.291504 
	C1947.352783,2124.291504 2060.590820,2124.291504 2175.095703,2124.291504 
	C2175.732666,2128.722656 2176.726318,2132.419434 2176.728760,2136.116699 
	C2176.809814,2258.096191 2176.803223,2380.075439 2176.763672,2502.054932 
	C2176.762207,2505.916748 2176.275391,2509.778564 2176.071777,2512.798096 
	C2174.575195,2513.990234 2174.098389,2514.489258 2173.519775,2514.796875 
	C2172.966553,2515.090820 2172.307617,2515.346191 2171.695312,2515.346436 
	C2045.054688,2515.398682 1918.414062,2515.430176 1791.773438,2515.401123 
	C1790.562256,2515.400879 1789.351440,2514.584229 1787.809326,2514.029785 
	C1787.257080,2512.383545 1786.093872,2510.532959 1786.092773,2508.681885 
	C1786.022705,2382.710205 1786.037354,2256.738525 1786.143921,2130.766846 
	C1786.145508,2128.929199 1787.392700,2127.092529 1788.408081,2124.291504 
	C1802.258423,2124.291504 1816.205933,2124.291504 1832.134033,2124.291504 
z"/>
<path fill="#000000" opacity="1.000000" stroke="none" 
	d="
M2619.999512,2515.398193 
	C2520.837158,2515.151123 2423.674561,2514.906250 2326.512451,2514.607666 
	C2325.980469,2514.605713 2325.450684,2513.853027 2324.919678,2513.451172 
	C2322.652100,2498.815186 2322.105469,2148.867188 2324.315674,2126.695068 
	C2324.841309,2126.286377 2325.340820,2125.836426 2325.899902,2125.480469 
	C2326.437012,2125.138672 2327.035889,2124.642578 2327.607910,2124.642090 
	C2452.787354,2124.528320 2577.967041,2124.449463 2703.146484,2124.398682 
	C2705.718750,2124.397705 2708.291016,2124.737793 2709.851562,2124.847656 
	C2714.590088,2128.603027 2713.463623,2132.863525 2713.465820,2136.644287 
	C2713.535889,2257.831055 2713.538574,2379.018066 2713.481201,2500.204834 
	C2713.479004,2504.689453 2712.770020,2509.173584 2712.458984,2512.850586 
	C2710.850098,2513.944580 2710.302734,2514.641846 2709.748291,2514.647217 
	C2680.499023,2514.934326 2651.249268,2515.163086 2619.999512,2515.398193 
z"/>
<path fill="#000000" opacity="1.000000" stroke="none" 
	d="
M1785.831299,1660.004395 
	C1785.923096,1636.009644 1785.988281,1614.012817 1786.178833,1592.017212 
	C1786.189209,1590.817505 1787.246094,1589.626831 1787.819946,1588.433838 
	C1803.752930,1586.068115 2157.038086,1586.090332 2174.901611,1588.460205 
	C2177.453369,1605.234131 2177.542969,1956.856201 2175.000244,1975.282104 
	C2158.238037,1977.552979 1805.297485,1977.789917 1787.855835,1975.543945 
	C1787.265625,1974.358398 1786.167358,1973.171875 1786.165527,1971.983521 
	C1785.999634,1868.656616 1785.918335,1765.329712 1785.831299,1660.004395 
z"/>
<path fill="#000000" opacity="1.000000" stroke="none" 
	d="
M3079.999023,1977.170532 
	C3006.144287,1977.170654 2934.289307,1977.170654 2863.474609,1977.170654 
	C2862.028564,1975.346313 2861.572266,1974.851685 2861.213135,1974.294312 
	C2860.868896,1973.760132 2860.374512,1973.161133 2860.374023,1972.590088 
	C2860.260254,1847.357422 2860.180908,1722.124878 2860.133789,1596.892212 
	C2860.132812,1594.327393 2860.521240,1591.762451 2860.798340,1588.328003 
	C2868.127686,1585.554688 2875.441895,1586.572144 2882.528564,1586.566528 
	C2977.121094,1586.490356 3071.713379,1586.515137 3166.305908,1586.515137 
	C3189.620850,1586.515137 3212.936279,1586.453735 3236.250732,1586.570312 
	C3240.737793,1586.592773 3245.221191,1587.313965 3249.420898,1587.687500 
	C3252.356689,1606.937744 3253.422119,1824.650024 3251.374512,1963.961182 
	C3251.318115,1967.800903 3250.773926,1971.633545 3250.502441,1974.919922 
	C3248.211182,1975.876221 3247.028809,1976.798950 3245.843506,1976.802734 
	C3191.229004,1976.975830 3136.614014,1977.068359 3079.999023,1977.170532 
z"/>
<path fill="#000000" opacity="1.000000" stroke="none" 
	d="
M3072.000977,2662.538818 
	C3131.277344,2662.653809 3188.553223,2662.759521 3245.829102,2662.948975 
	C3247.008789,2662.952881 3248.185303,2663.930908 3250.417480,2664.923340 
	C3250.712646,2668.207031 3251.306152,2672.044678 3251.367920,2675.890869 
	C3253.507080,2809.405518 3252.434082,3032.111572 3249.550537,3051.468994 
	C3247.885254,3051.974121 3246.061035,3053.011230 3244.236084,3053.012451 
	C3117.048828,3053.088379 2989.861328,3053.081055 2861.861572,3053.081055 
	C2861.187744,3049.209961 2860.174072,3046.097900 2860.171875,3042.985352 
	C2860.094238,2919.751709 2860.104980,2796.518311 2860.132812,2673.284668 
	C2860.133545,2670.701660 2860.469727,2668.118652 2860.681641,2665.073242 
	C2866.980957,2661.018066 2873.776855,2662.622314 2880.155029,2662.610352 
	C2943.436768,2662.492432 3006.718994,2662.538818 3072.000977,2662.538818 
z"/>
<path fill="#000000" opacity="1.000000" stroke="none" 
	d="
M2111.994629,3053.059570 
	C2002.740479,3053.059570 1895.484497,3053.059570 1789.231079,3053.059570 
	C1787.855591,3051.184082 1787.446655,3050.687012 1787.106934,3050.146484 
	C1786.752686,3049.583496 1786.188354,3048.978760 1786.187622,3048.391846 
	C1786.041504,2927.735352 1785.933105,2807.078857 1785.843872,2686.422363 
	C1785.839478,2680.425049 1785.932373,2674.424805 1786.170898,2668.433350 
	C1786.219971,2667.201660 1787.123169,2666.003906 1787.928589,2664.085693 
	C1790.054443,2663.689453 1792.575317,2662.809814 1795.096680,2662.808594 
	C1921.614136,2662.741699 2048.131592,2662.749756 2173.401611,2662.749756 
	C2175.083740,2664.665039 2175.614258,2665.114258 2175.937744,2665.681396 
	C2176.245361,2666.221191 2176.499756,2666.884033 2176.500000,2667.492676 
	C2176.555908,2794.150146 2176.590576,2920.807617 2176.563477,3047.465088 
	C2176.563232,3048.643555 2175.727051,3049.822266 2174.688965,3052.565918 
	C2164.973633,3053.595703 2154.449951,3052.908203 2143.991211,3053.033691 
	C2133.993164,3053.153809 2123.992188,3053.059570 2111.994629,3053.059570 
z"/>
<path fill="#000000" opacity="1.000000" stroke="none" 
	d="
M2136.231934,3839.343750 
	C2146.139160,3917.026855 2155.895996,3992.935547 2165.755127,4069.641357 
	C2146.475586,4076.632812 2126.898438,4074.711426 2107.428711,4079.597412 
	C2078.943848,4050.439209 2050.581787,4021.455078 2022.275513,3992.416748 
	C1994.369873,3963.789551 1966.649780,3934.980225 1938.610840,3906.484131 
	C1910.286499,3877.698242 1882.538574,3848.326660 1851.831055,3818.019775 
	C1849.812744,3839.396240 1855.126709,3857.218750 1856.672119,3875.275146 
	C1858.260498,3893.830566 1861.352905,3912.257080 1863.784546,3930.740234 
	C1866.216187,3949.224365 1868.709106,3967.700439 1871.056274,3986.195312 
	C1873.403931,4004.693359 1875.582642,4023.212891 1877.875488,4041.718018 
	C1880.157837,4060.138428 1882.489868,4078.552490 1884.941284,4098.095215 
	C1857.724976,4102.903809 1831.613403,4106.091797 1806.614746,4108.536133 
	C1804.774414,4107.065918 1804.183838,4106.753418 1803.830933,4106.268555 
	C1803.449829,4105.744141 1803.191406,4105.080078 1803.051392,4104.439941 
	C1802.340942,4101.192383 1801.462524,4097.961426 1801.045044,4094.673584 
	C1783.610962,3957.346680 1766.220093,3820.014160 1748.708374,3681.770264 
	C1767.479736,3675.267090 1787.011230,3676.642090 1806.675537,3672.162842 
	C1849.601196,3714.749268 1891.286011,3758.645752 1933.675293,3801.837891 
	C1976.065308,3845.031738 2018.147339,3888.527588 2060.234131,3931.757080 
	C2066.338379,3928.829102 2063.775146,3924.355225 2063.386230,3921.151123 
	C2059.213623,3886.780518 2054.701416,3852.451172 2050.300537,3818.108154 
	C2045.476196,3780.458984 2040.645874,3742.810547 2035.869141,3705.155518 
	C2033.874756,3689.432861 2032.012695,3673.693359 2029.953857,3656.845215 
	C2056.752930,3649.904297 2083.325684,3649.828125 2110.569336,3644.876953 
	C2116.946045,3677.946533 2119.508545,3710.353027 2123.940430,3742.466309 
	C2128.309570,3774.122803 2132.059814,3805.864746 2136.231934,3839.343750 
z"/>
<path fill="#000000" opacity="1.000000" stroke="none" 
	d="
M2986.121094,3797.889404 
	C2988.301758,3734.270020 2989.687012,3672.486328 2993.057617,3609.528320 
	C2999.135010,3609.270020 3004.281738,3608.720459 3009.405273,3608.887939 
	C3039.358643,3609.865967 3069.303955,3611.091309 3099.257324,3612.073975 
	C3120.643311,3612.775391 3141.733887,3615.168701 3162.133057,3622.009766 
	C3204.392090,3636.182129 3230.338135,3665.028320 3238.131348,3708.932373 
	C3242.716309,3734.762451 3241.933350,3760.671143 3232.742188,3785.787354 
	C3219.015869,3823.295898 3194.824707,3849.422607 3152.996338,3858.377686 
	C3154.940918,3862.635254 3156.324707,3866.783447 3158.564697,3870.401367 
	C3190.108887,3921.347656 3221.780762,3972.214600 3253.382812,4023.125244 
	C3256.129883,4027.551025 3258.601318,4032.147949 3261.315918,4036.865967 
	C3247.091309,4040.392334 3205.941650,4039.566406 3163.088135,4035.047607 
	C3153.048584,4017.139893 3142.644531,3998.625000 3132.282471,3980.086426 
	C3121.892578,3961.497314 3111.637939,3942.832275 3101.151611,3924.297852 
	C3090.808350,3906.015381 3081.383057,3887.175781 3067.847412,3866.022217 
	C3062.293213,3923.485107 3065.284912,3977.266846 3060.126465,4030.536133 
	C3044.392090,4033.033447 2998.851074,4032.057617 2980.890137,4028.887207 
	C2978.391357,4014.389648 2979.702637,3961.011475 2982.272705,3913.592285 
	C2984.327148,3875.690186 2984.732666,3837.699219 2986.121094,3797.889404 
M3117.725830,3801.580322 
	C3143.036133,3794.885498 3155.036377,3777.421875 3156.798340,3752.277344 
	C3157.446045,3743.035645 3157.303711,3733.607666 3156.262939,3724.406738 
	C3154.304199,3707.083984 3144.598633,3694.830811 3128.670654,3688.100098 
	C3111.298096,3680.758789 3093.121826,3678.212402 3072.866455,3680.745850 
	C3072.206543,3701.802734 3071.212402,3722.278076 3071.021729,3742.760742 
	C3070.832275,3763.116699 3067.011475,3783.486328 3069.941650,3804.082031 
	C3074.892334,3804.687256 3078.864990,3805.766113 3082.760010,3805.535645 
	C3093.381348,3804.906494 3103.969727,3803.724609 3117.725830,3801.580322 
z"/>
<path fill="#000000" opacity="1.000000" stroke="none" 
	d="
M1393.008545,3903.070068 
	C1385.105591,3860.151855 1377.512573,3818.917725 1369.990356,3777.671143 
	C1369.058472,3772.561035 1368.501831,3767.382812 1367.571045,3760.825195 
	C1394.199219,3755.362793 1419.940430,3749.941162 1446.212769,3746.474609 
	C1452.997803,3758.562744 1452.860718,3771.530273 1455.183594,3783.702637 
	C1468.032959,3851.032715 1479.805542,3918.569336 1492.868042,3985.856445 
	C1496.396118,4004.029785 1502.480347,4021.808105 1508.608276,4039.342285 
	C1513.011841,4051.941895 1520.454468,4063.125977 1530.391113,4072.426270 
	C1541.058960,4082.411621 1553.533936,4088.244385 1568.187744,4087.845947 
	C1576.744507,4087.613281 1585.418579,4086.503906 1593.761963,4084.582520 
	C1620.026733,4078.533447 1634.506470,4060.923340 1639.959961,4035.270264 
	C1643.305908,4019.530518 1644.426392,4003.575195 1641.844849,3987.611572 
	C1636.852417,3956.740479 1631.936157,3925.850098 1626.337646,3895.085938 
	C1616.686890,3842.054199 1606.511353,3789.118652 1596.642456,3736.126465 
	C1595.686157,3730.990967 1595.335938,3725.742676 1594.743286,3720.865967 
	C1607.178101,3715.320068 1647.678345,3707.132812 1673.748047,3704.737061 
	C1679.308960,3716.778076 1679.789673,3730.234863 1682.234497,3743.087891 
	C1696.037598,3815.656982 1709.700684,3888.257812 1722.583008,3960.994629 
	C1728.194458,3992.677490 1728.509888,4024.604248 1719.948853,4056.097656 
	C1708.545532,4098.047363 1682.960938,4127.785156 1642.863892,4144.530762 
	C1605.120972,4160.292969 1566.105591,4165.717773 1525.697998,4156.755371 
	C1499.427246,4150.929199 1477.837891,4137.286133 1460.226318,4117.157227 
	C1436.807129,4090.388916 1423.461914,4058.612061 1416.205688,4024.356445 
	C1408.623047,3988.559326 1402.537354,3952.445068 1395.775513,3916.473633 
	C1395.038208,3912.552002 1394.155640,3908.657471 1393.008545,3903.070068 
z"/>
<path fill="#000000" opacity="1.000000" stroke="none" 
	d="
M2919.618408,3680.344238 
	C2875.800049,3680.926758 2833.956299,3681.367920 2791.158691,3681.819336 
	C2787.830322,3697.810059 2789.426025,3712.854736 2790.021240,3727.904297 
	C2790.595459,3742.415527 2790.555176,3756.951172 2790.802246,3772.578857 
	C2813.001465,3775.260742 2834.096191,3772.779785 2855.131836,3772.840332 
	C2876.301758,3772.901367 2897.471924,3772.853516 2918.334961,3772.853516 
	C2921.541748,3789.034180 2921.890137,3823.022705 2919.153320,3844.096680 
	C2877.630859,3846.336670 2835.788818,3844.468262 2793.276611,3846.101562 
	C2792.455566,3848.611084 2791.011475,3850.965332 2791.018311,3853.315186 
	C2791.114014,3885.945801 2791.391602,3918.576172 2791.697510,3951.205566 
	C2791.715576,3953.124756 2792.357422,3955.037842 2792.902344,3958.007568 
	C2796.583984,3958.442871 2800.377686,3959.302246 2804.165283,3959.274414 
	C2835.461426,3959.044189 2866.755859,3958.589355 2898.052002,3958.341553 
	C2907.265625,3958.268555 2916.547119,3957.701904 2926.983887,3959.282227 
	C2928.186523,3982.545654 2927.279785,4004.970215 2927.806396,4028.219971 
	C2924.135010,4029.203613 2921.132812,4030.693848 2918.119873,4030.715088 
	C2851.519043,4031.183350 2784.916992,4031.501465 2718.314941,4031.774902 
	C2715.826904,4031.785156 2713.335693,4031.052246 2711.121338,4030.708008 
	C2708.381348,4012.347900 2705.715820,3636.021240 2708.146973,3611.778320 
	C2710.907227,3611.275146 2713.978516,3610.250732 2717.059082,3610.222412 
	C2782.319580,3609.619385 2847.581543,3609.121338 2912.843262,3608.642090 
	C2916.027832,3608.618652 2919.215332,3608.956543 2923.515137,3609.185547 
	C2923.913086,3617.357910 2924.444336,3624.500000 2924.570557,3631.649170 
	C2924.817627,3645.630859 2924.987061,3659.618652 2924.800781,3673.598877 
	C2924.771484,3675.814209 2922.713623,3678.002441 2919.618408,3680.344238 
z"/>
<path fill="#000000" opacity="1.000000" stroke="none" 
	d="
M2433.748047,3738.090088 
	C2456.340088,3792.200928 2478.235107,3844.947998 2501.506836,3901.010742 
	C2511.311279,3875.058350 2515.916016,3851.335938 2522.803711,3828.340332 
	C2529.864014,3804.767822 2535.913330,3780.891602 2542.364014,3757.137207 
	C2548.641357,3734.020508 2554.784180,3710.867676 2561.136475,3687.771729 
	C2567.655273,3664.070557 2574.356689,3640.419678 2581.250977,3615.771240 
	C2584.142334,3614.906006 2587.162354,3613.345215 2590.256836,3613.180664 
	C2614.863770,3611.871826 2639.484131,3610.803711 2664.105225,3609.786865 
	C2665.199707,3609.741455 2666.343750,3610.902100 2667.831787,3611.697021 
	C2667.831787,3613.433350 2668.321777,3615.519531 2667.761475,3617.269043 
	C2621.735596,3760.996094 2575.628174,3904.697266 2529.455078,4048.622314 
	C2512.855469,4052.298096 2497.051270,4051.797363 2480.345215,4051.669434 
	C2420.396240,3912.934570 2360.499268,3774.337158 2300.687256,3635.703125 
	C2299.959717,3634.016846 2300.323242,3631.859863 2300.081787,3628.651367 
	C2328.722656,3627.017822 2357.028320,3625.403320 2386.248047,3623.736572 
	C2402.080078,3661.957764 2417.565430,3699.342041 2433.748047,3738.090088 
z"/>
<path fill="#000000" opacity="1.000000" stroke="none" 
	d="
M3424.547607,3694.393555 
	C3409.524170,3700.928711 3399.993652,3710.394043 3395.438721,3724.734375 
	C3391.001953,3738.702393 3393.794189,3750.990234 3403.194092,3761.960693 
	C3411.570801,3771.736816 3422.084717,3778.722656 3433.345947,3784.666748 
	C3445.118652,3790.880859 3457.231934,3796.505615 3468.683105,3803.258789 
	C3480.699951,3810.345703 3492.615967,3817.800781 3503.682373,3826.263672 
	C3533.291016,3848.905029 3546.993408,3879.613037 3546.567627,3916.565186 
	C3546.288574,3940.754639 3542.083496,3964.364502 3531.801758,3986.443848 
	C3512.399170,4028.109131 3480.253418,4053.553955 3434.482178,4060.465332 
	C3372.205322,4069.868896 3323.554932,4047.717041 3288.278809,3995.854492 
	C3283.081299,3988.212891 3278.759521,3979.975342 3274.268066,3972.410156 
	C3283.914307,3960.426758 3309.008301,3938.676025 3329.122314,3924.613525 
	C3333.983398,3926.669189 3333.838379,3931.917969 3335.513428,3935.798828 
	C3341.706299,3950.148438 3350.551270,3962.433838 3362.578857,3972.396973 
	C3371.961182,3980.168701 3382.468506,3985.932129 3394.548340,3987.934082 
	C3433.901611,3994.455566 3455.720703,3966.647461 3459.586426,3936.405518 
	C3462.249512,3915.571289 3455.468262,3898.020508 3438.591309,3885.435303 
	C3429.048828,3878.319580 3418.411377,3872.604980 3407.986328,3866.760498 
	C3398.708740,3861.559814 3388.944580,3857.233398 3379.584229,3852.171875 
	C3373.152344,3848.694092 3366.952881,3844.759766 3360.804932,3840.788574 
	C3312.934570,3809.868652 3295.519775,3768.346191 3313.328369,3707.408936 
	C3332.957520,3640.242188 3397.113037,3609.596191 3456.901611,3622.709961 
	C3479.968750,3627.769287 3501.371826,3636.424316 3521.125000,3649.151123 
	C3531.770508,3656.009521 3541.749023,3663.802490 3549.368652,3673.968750 
	C3544.603516,3685.799316 3527.135986,3708.823242 3508.025635,3728.315674 
	C3496.005615,3713.142090 3483.161133,3698.731201 3463.477783,3693.620117 
	C3450.997070,3690.379150 3438.479736,3689.947998 3424.547607,3694.393555 
z"/>
<path fill="#000000" opacity="1.000000" stroke="none" 
	d="
M4074.855225,3918.211426 
	C4048.020020,3843.536377 4021.777344,3770.392090 3995.018555,3695.809814 
	C4012.048096,3694.445068 4026.525391,3699.676758 4041.305176,3701.818115 
	C4056.419189,3704.007568 4071.389893,3707.187256 4087.400879,3710.112061 
	C4089.025879,3714.111572 4091.077637,3718.199219 4092.379150,3722.513184 
	C4105.637695,3766.454590 4118.759766,3810.437500 4131.977539,3854.391113 
	C4132.882812,3857.400879 4134.253418,3860.270020 4136.231934,3865.298584 
	C4155.241699,3843.168213 4171.866211,3821.813721 4188.926270,3800.831055 
	C4205.707031,3780.191650 4222.383789,3759.468018 4239.841309,3737.872070 
	C4270.647949,3741.784180 4300.898438,3748.451660 4331.597656,3753.719238 
	C4332.198730,3761.044189 4327.040527,3764.073242 4323.872559,3767.816895 
	C4274.817871,3825.784180 4225.803711,3883.789551 4176.207520,3941.292236 
	C4167.528809,3951.354736 4162.834473,3962.049805 4160.632324,3974.837402 
	C4151.370117,4028.616943 4141.659180,4082.319092 4132.088379,4136.045410 
	C4131.642578,4138.545898 4130.963867,4141.004395 4130.449707,4143.237793 
	C4116.060547,4143.946289 4077.990479,4137.856445 4050.107422,4130.423340 
	C4050.908203,4123.682617 4051.386963,4116.586426 4052.636475,4109.628418 
	C4061.341553,4061.154541 4070.201660,4012.708984 4079.021973,3964.255859 
	C4083.094238,3941.883789 4083.104492,3941.885742 4074.855225,3918.211426 
z"/>
<path fill="#000000" opacity="1.000000" stroke="none" 
	d="
M3943.704346,3759.913086 
	C3927.488525,3757.818604 3913.039551,3755.866211 3897.341064,3753.744629 
	C3890.897705,3783.098633 3888.787842,3812.245117 3884.414062,3841.011475 
	C3880.113525,3869.295898 3876.535400,3897.690430 3872.652344,3926.038330 
	C3868.678711,3955.045654 3864.677246,3984.049072 3860.765137,4013.064697 
	C3856.950439,4041.355469 3853.233154,4069.659912 3849.313232,4099.161621 
	C3821.667969,4096.327637 3795.540283,4092.656006 3768.657959,4088.328613 
	C3767.911377,4071.077393 3772.270508,4054.956787 3774.116699,4038.618164 
	C3775.984619,4022.089111 3778.295410,4005.608398 3780.552490,3989.125732 
	C3782.809326,3972.644287 3785.296387,3956.194824 3787.577881,3939.716797 
	C3789.767822,3923.898926 3791.837158,3908.064209 3793.935791,3892.233887 
	C3796.122070,3875.741943 3798.204590,3859.235840 3800.471924,3842.755127 
	C3802.739014,3826.274658 3805.313965,3809.835938 3807.505127,3793.345947 
	C3809.680664,3776.970947 3811.546387,3760.554443 3813.672363,3743.134766 
	C3786.505859,3737.019531 3759.957275,3735.879883 3732.747559,3730.632568 
	C3732.451904,3727.280762 3731.464600,3723.482422 3731.906494,3719.857910 
	C3734.302246,3700.206543 3736.587646,3680.521973 3740.427734,3660.103271 
	C3744.710449,3660.295898 3747.953613,3660.186768 3751.122314,3660.621094 
	C3830.064941,3671.444336 3908.999512,3682.325439 3988.723877,3693.304443 
	C3988.538574,3717.852539 3983.213379,3740.294434 3980.255127,3764.509033 
	C3967.653564,3762.895264 3956.562500,3761.475098 3943.704346,3759.913086 
z"/>
<path fill="#000000" opacity="1.000000" stroke="none" 
	d="
M3605.997559,4069.528564 
	C3595.132324,4068.251465 3586.029053,4067.241699 3575.509521,4066.074707 
	C3582.115234,3995.162109 3590.413330,3925.860352 3597.602783,3856.454102 
	C3604.735596,3787.594238 3612.549316,3718.804932 3620.049805,3650.116211 
	C3634.598633,3647.597900 3676.462891,3651.635254 3702.085205,3658.117676 
	C3687.843018,3794.852783 3672.762939,3931.707275 3657.987793,4068.592773 
	C3657.793457,4070.393799 3656.338867,4072.059082 3654.979736,4074.771729 
	C3639.317627,4073.121338 3623.538574,4071.458740 3605.997559,4069.528564 
z"/>
<path fill="#000000" opacity="1.000000" stroke="none" 
	d="
M2272.678711,3710.788086 
	C2276.666992,3756.420898 2280.443848,3800.216797 2284.317383,3844.004150 
	C2289.012451,3897.078857 2293.840332,3950.142090 2298.501221,4003.219727 
	C2299.890381,4019.039307 2300.912598,4034.891357 2302.106201,4050.772705 
	C2299.805420,4051.988037 2298.176270,4053.506104 2296.415039,4053.679443 
	C2274.545166,4055.828613 2252.659180,4057.816895 2230.768799,4059.747803 
	C2227.617432,4060.025635 2224.420654,4059.786377 2220.189941,4059.786377 
	C2208.014404,3919.925293 2195.958984,3781.440430 2183.920898,3643.158936 
	C2200.303711,3637.946289 2248.700928,3633.714111 2266.076660,3636.044189 
	C2268.487305,3660.119629 2271.067139,3684.474121 2272.678711,3710.788086 
z"/>
<path fill="#000000" opacity="1.000000" stroke="none" 
	d="
M3116.148438,3802.171143 
	C3103.969727,3803.724609 3093.381348,3804.906494 3082.760010,3805.535645 
	C3078.864990,3805.766113 3074.892334,3804.687256 3069.941650,3804.082031 
	C3067.011475,3783.486328 3070.832275,3763.116699 3071.021729,3742.760742 
	C3071.212402,3722.278076 3072.206543,3701.802734 3072.866455,3680.745850 
	C3093.121826,3678.212402 3111.298096,3680.758789 3128.670654,3688.100098 
	C3144.598633,3694.830811 3154.304199,3707.083984 3156.262939,3724.406738 
	C3157.303711,3733.607666 3157.446045,3743.035645 3156.798340,3752.277344 
	C3155.036377,3777.421875 3143.036133,3794.885498 3116.148438,3802.171143 
z"/>
</svg>