<svg version="1.1" id="Layer_1" xmlns="http://www.w3.org/2000/svg" xmlns:xlink="http://www.w3.org/1999/xlink" x="0px" y="0px"
	 width="100%" viewBox="0 0 800 800" enable-background="new 0 0 800 800" xml:space="preserve">
<path fill="#FFFFFF" opacity="1.000000" stroke="none" 
	d="
M710.004944,570.000000 
	C710.005066,614.829895 709.949097,659.160034 710.087463,703.489502 
	C710.102112,708.195801 709.207886,710.125183 703.845276,710.120972 
	C501.361176,709.962952 298.876862,709.956421 96.392654,710.047241 
	C92.272690,710.049133 90.540634,709.064758 90.986313,704.838867 
	C91.229607,702.531860 91.017151,700.177246 91.017143,697.844116 
	C91.016518,499.692749 91.016563,301.541382 91.016563,103.390015 
	C91.016563,99.570160 91.016563,95.750298 91.016563,91.500725 
	C92.518791,91.331337 93.769905,91.066826 95.021049,91.066650 
	C297.837982,91.038383 500.654938,91.040016 703.471802,90.949059 
	C708.013306,90.947021 710.113159,91.483154 710.107422,97.036552 
	C709.944397,254.524246 709.991882,412.012146 710.004944,570.000000 
M228.001221,254.001205 
	C228.001221,254.001205 227.975525,253.985306 227.310455,254.060989 
	C226.552216,255.050323 225.793976,256.039642 225.001831,257.001984 
	C225.001831,257.001984 225.029800,257.035156 224.242554,257.015900 
	C222.829971,257.848846 221.110855,258.408752 220.072128,259.574768 
	C218.223007,261.650452 216.803894,264.106018 215.172501,266.379395 
	C210.275620,273.203308 205.290649,279.965454 200.483078,286.851562 
	C197.468338,291.169678 195.206161,296.120453 191.697617,299.956177 
	C188.260925,303.713348 187.740356,307.901428 187.304672,312.978088 
	C187.140259,313.314758 186.975845,313.651428 186.104675,314.052399 
	C185.090286,315.599091 183.680283,317.016388 183.125336,318.713348 
	C179.335434,330.302216 176.320068,342.191223 171.750534,353.454224 
	C170.034393,357.684174 170.213852,361.056335 170.940231,365.654694 
	C170.872482,366.113525 170.804733,366.572357 170.199722,367.489502 
	C169.435684,375.823242 168.666794,384.156555 167.942001,392.493713 
	C167.927353,392.662109 168.426895,392.875153 168.800430,393.986084 
	C168.774063,398.988068 168.747711,403.990051 168.322968,409.713318 
	C168.236404,414.860901 167.981140,420.012238 168.095535,425.155365 
	C168.414368,439.489105 171.032608,453.389221 175.951752,466.893860 
	C178.189972,473.038422 179.711670,479.441925 181.853897,485.625610 
	C182.194595,486.609100 184.098404,487.051056 184.999878,487.942688 
	C184.999878,487.942688 185.281723,487.752686 185.217209,488.528290 
	C187.349228,498.361023 191.847885,507.053711 198.058273,514.887817 
	C198.935501,515.994446 200.250031,516.754395 201.095810,517.883240 
	C201.095810,517.883240 201.378952,517.698486 201.306213,518.429443 
	C203.889282,521.934082 206.472351,525.438660 209.000534,529.000000 
	C209.000534,529.000000 209.057755,528.945984 209.110809,529.654358 
	C212.882950,534.010437 216.655090,538.366516 220.762787,542.884277 
	C220.762787,542.884277 220.964188,543.197571 220.951950,543.922302 
	C222.148972,545.818359 223.089859,547.953735 224.593597,549.563232 
	C228.329056,553.561462 232.164307,557.498596 236.272430,561.103638 
	C238.534424,563.088684 241.428497,564.353394 244.008133,565.992676 
	C244.008133,565.992676 244.050461,565.953064 244.314133,566.408325 
	C244.625916,566.550781 244.937683,566.693237 245.662048,567.033508 
	C245.662048,567.033508 245.932129,567.402893 246.002396,568.050476 
	C248.390839,569.632874 250.779282,571.215271 253.155304,572.850403 
	C253.155304,572.850403 253.207611,572.835999 252.968597,573.403625 
	C252.890793,574.418274 252.479614,576.198364 252.785660,576.331665 
	C256.744354,578.055603 260.805054,579.545288 264.912842,581.082764 
	C264.912842,581.082764 264.921082,581.156006 265.092560,581.802490 
	C265.682343,582.372803 266.179108,583.119324 266.875824,583.487000 
	C277.584076,589.138367 288.277802,594.820923 299.089325,600.269287 
	C300.750244,601.106262 302.981262,600.812012 304.997864,601.000366 
	C304.997864,601.000366 304.963745,601.054260 305.153625,601.717529 
	C306.500946,602.627563 307.730835,603.875793 309.215149,604.391235 
	C317.315125,607.203979 325.445312,609.944031 333.654358,612.412354 
	C334.856537,612.773804 336.536285,611.546936 338.754974,611.011902 
	C339.503998,611.130188 340.253021,611.248474 341.456055,611.895386 
	C343.151703,612.521606 344.810547,613.546936 346.549194,613.707397 
	C355.764465,614.558105 365.003540,615.807800 374.227356,615.752502 
	C387.274170,615.674194 400.317688,614.623352 413.353699,613.840271 
	C414.603882,613.765198 415.791321,612.645630 417.000000,612.000000 
	C417.000000,612.000000 417.011780,612.008728 417.402863,612.016602 
	C417.677704,611.958069 417.877441,611.802917 418.738434,611.319397 
	C419.506989,611.276611 420.275513,611.233826 421.678772,611.568542 
	C427.115021,610.052063 432.551270,608.535583 438.320496,606.819824 
	C438.320496,606.819824 438.707764,606.795593 439.531494,606.930725 
	C453.861328,604.114380 467.247498,598.712036 480.068512,591.873108 
	C481.994598,590.845764 483.393829,588.830688 485.411621,587.001099 
	C485.411621,587.001099 485.864532,586.905884 486.357056,586.882446 
	C486.696472,586.782654 486.935547,586.570007 487.490448,585.806030 
	C488.037140,585.560608 488.583862,585.315247 489.697235,585.071045 
	C490.134705,584.748352 490.572174,584.425659 491.428925,583.700256 
	C491.957611,583.471619 492.486298,583.243042 493.770966,583.036377 
	C498.980469,580.003479 504.455109,577.336548 509.312592,573.817749 
	C512.965088,571.171875 515.825439,567.432556 519.299744,563.899658 
	C519.299744,563.899658 519.665222,563.784424 520.355469,563.810974 
	C521.250854,562.910217 522.146240,562.009460 523.325745,560.676208 
	C523.599182,560.470520 523.872620,560.264771 524.827515,560.030090 
	C525.473572,559.236267 526.119568,558.442383 527.024719,557.166199 
	C527.581787,556.707336 528.138916,556.248474 529.340515,555.576355 
	C531.381470,551.793396 530.426758,549.861877 525.018433,546.981201 
	C525.018433,546.981201 525.040344,546.918152 524.941895,546.329285 
	C524.350098,545.861633 523.758301,545.393982 523.080017,544.928345 
	C523.080017,544.928345 523.080688,544.841858 523.072144,544.139893 
	C522.532227,543.139954 522.188599,541.946228 521.422241,541.169800 
	C512.725586,532.359802 503.987671,523.589844 495.183197,514.887695 
	C494.317993,514.032593 492.937622,513.698792 491.368896,512.971008 
	C491.090454,512.811523 490.910004,512.576782 490.829895,511.556305 
	C487.774323,508.773193 484.718750,505.990112 481.270294,503.010925 
	C481.034698,502.814423 480.891022,502.564972 480.820648,501.553497 
	C477.372650,497.589874 473.963043,493.591370 470.429352,489.705658 
	C469.973999,489.204926 468.881042,489.158356 468.074097,489.124573 
	C464.429169,488.972107 458.548889,493.247131 457.003632,497.001221 
	C457.003632,497.001221 457.052002,497.063171 456.304413,496.983398 
	C453.852020,498.939209 451.399658,500.894989 448.750244,503.147095 
	C448.750244,503.147095 448.419006,503.277161 447.669006,503.149628 
	C445.801880,504.510223 443.934784,505.870850 441.664398,507.508148 
	C441.664398,507.508148 441.189117,507.623413 440.800323,507.185303 
	C440.021149,507.271606 439.143036,507.153961 438.478333,507.476288 
	C432.873016,510.194519 427.433777,513.298523 421.694916,515.686462 
	C415.264984,518.361938 408.574493,520.411255 401.336487,522.916321 
	C400.881348,522.916870 400.426178,522.917419 399.782928,522.688721 
	C399.461060,522.563843 399.212006,522.646240 398.346222,523.053711 
	C397.881927,523.028503 397.417603,523.003235 396.254791,522.562378 
	C391.522217,522.405701 386.786438,522.063782 382.058044,522.146545 
	C377.702698,522.222778 373.355316,522.755310 368.155731,523.137085 
	C366.466980,522.992981 364.778259,522.848877 362.738800,522.090393 
	C355.700409,519.831421 348.614319,517.709778 341.633820,515.284119 
	C328.128998,510.591431 315.604828,504.140259 304.955170,494.376160 
	C303.697388,493.222961 301.862732,492.698975 299.774292,491.555847 
	C299.219116,490.964996 298.663910,490.374176 298.000366,489.160156 
	C297.054596,488.417847 296.108795,487.675537 294.873016,486.769714 
	C294.873016,486.769714 294.709290,486.479797 294.586304,485.895325 
	C294.117798,485.572205 293.649292,485.249084 292.876190,484.734619 
	C292.876190,484.734619 292.706543,484.417419 292.730804,483.708099 
	C291.360199,482.591644 289.989594,481.475159 288.802856,480.175049 
	C288.802856,480.175049 288.592834,480.328033 288.729736,479.619293 
	C287.849091,478.736298 286.968445,477.853302 285.811981,476.753845 
	C285.811981,476.753845 285.670380,476.433075 285.713837,475.687408 
	C283.709351,472.876831 281.704865,470.066284 280.000000,467.002441 
	C280.000000,467.002441 279.701050,467.257599 279.719177,466.499542 
	C276.926971,461.033051 274.135162,455.566376 271.342377,450.100159 
	C269.955933,447.386597 268.567749,444.673950 267.014252,441.518188 
	C267.014252,441.518188 266.966614,441.047821 267.087738,440.217499 
	C266.722046,438.433685 266.365875,436.647888 265.988922,434.866455 
	C264.614807,428.372864 262.574829,421.936188 262.023010,415.373993 
	C261.341797,407.272766 261.379791,399.024017 262.066010,390.920197 
	C262.706940,383.351044 263.592255,375.515686 266.189941,368.468353 
	C269.822327,358.614014 274.965088,349.290436 279.789032,339.908081 
	C285.473145,328.852722 294.058868,320.068085 303.166718,311.844940 
	C308.894257,306.673767 315.050079,301.976990 321.248566,296.799774 
	C321.248566,296.799774 321.578705,296.666504 322.383331,296.831665 
	C327.673859,295.012238 333.532562,294.261261 337.286194,288.811188 
	C337.286194,288.811188 337.632812,288.722717 338.470917,288.896942 
	C345.451141,287.440277 352.446808,286.053619 359.408783,284.514343 
	C384.243530,279.023560 408.131348,281.242767 430.848999,293.159515 
	C438.185852,297.008179 445.729340,300.530060 452.747223,304.894592 
	C457.023285,307.553955 460.618988,311.392822 464.240417,314.984131 
	C466.116791,316.844910 467.449829,316.835144 469.291260,315.218964 
	C470.780426,313.911896 472.625671,312.986206 474.016327,311.594879 
	C490.600128,295.003235 507.147797,278.375305 523.634521,261.687256 
	C524.968140,260.337341 525.783752,258.475677 526.968506,256.979584 
	C526.968506,256.979584 526.854797,256.838867 527.552612,256.808990 
	C529.126343,255.637619 531.006287,254.700455 532.152344,253.201950 
	C532.781555,252.379150 532.730347,249.953720 532.039185,249.367813 
	C523.505371,242.133850 514.901672,234.971039 506.066620,228.111160 
	C503.566010,226.169571 500.257782,225.268143 496.866028,223.579895 
	C496.601562,223.326431 496.337097,223.072983 495.861633,222.188309 
	C485.176483,215.328888 474.896332,207.735382 462.530762,203.938324 
	C451.990204,200.701675 441.586090,196.921463 430.899414,194.280792 
	C409.233521,188.927200 387.099609,188.229233 364.900391,189.115662 
	C362.881378,189.196289 360.894867,190.091415 358.257019,190.763992 
	C357.821838,190.761230 357.386658,190.758469 356.362671,190.354095 
	C351.175079,187.458267 346.791107,191.186890 342.222748,192.350037 
	C335.139526,194.153534 327.282990,193.171341 320.714325,198.220718 
	C320.714325,198.220718 320.344299,198.298813 319.509186,198.099884 
	C312.348328,200.450455 305.187500,202.801041 297.252319,205.127625 
	C295.765503,206.059021 294.278687,206.990433 292.750092,208.228760 
	C292.750092,208.228760 292.866547,208.515793 292.330444,208.838455 
	C291.924591,208.924347 291.518707,209.010239 290.313354,209.025742 
	C283.121735,210.388794 277.335632,214.231171 271.999237,219.019867 
	C271.999237,219.019867 272.225159,219.283127 271.452484,219.124100 
	C264.208710,221.799484 257.284760,224.942383 252.611191,232.308563 
	C252.283371,232.505356 251.955566,232.702164 251.312561,232.926910 
	C251.096512,233.023666 250.984299,233.190292 250.668869,233.942230 
	C250.328400,234.141998 249.987915,234.341782 248.884186,234.369080 
	C241.723145,237.222122 237.082352,242.802399 233.005417,249.004837 
	C233.005417,249.004837 233.019135,249.030045 232.362091,249.101151 
	C231.567947,250.056183 230.773804,251.011215 230.000763,252.001221 
	C230.000763,252.001221 229.966095,251.979553 229.354065,252.082581 
	C228.897766,252.713531 228.441483,253.344498 228.001221,254.001205 
M541.351685,350.664642 
	C532.930420,354.489075 525.723755,359.769104 519.416687,366.692322 
	C497.383759,390.878021 503.853882,432.728363 532.251160,449.109619 
	C552.629761,460.865265 579.705383,459.819214 598.890076,440.990540 
	C617.551758,422.675171 619.080933,388.530273 603.735962,369.519440 
	C589.308716,351.645660 566.373901,342.224640 541.351685,350.664642 
z"/>
<path fill="#FFFFFF" opacity="1.000000" stroke="none" 
	d="
M356.951477,190.755707 
	C357.386658,190.758469 357.821838,190.761230 359.034210,190.817429 
	C380.582794,189.971451 401.246521,189.817184 421.812469,194.179672 
	C439.751099,197.984848 457.201233,202.957657 473.650299,211.109344 
	C481.203766,214.852631 488.603302,218.906509 496.072632,222.819519 
	C496.337097,223.072983 496.601562,223.326431 497.240234,224.021729 
	C506.811462,231.826080 515.880310,239.357574 525.263367,246.474945 
	C529.520386,249.703995 530.754333,252.696350 526.854797,256.838867 
	C526.854797,256.838867 526.968506,256.979584 526.579590,256.994171 
	C519.565186,263.536255 512.918823,270.042633 506.318909,276.595856 
	C494.762085,288.071045 483.174744,299.516663 471.731567,311.104431 
	C468.518250,314.358368 466.441772,314.281921 462.725616,311.178833 
	C455.508972,305.152710 447.860931,299.425507 439.702118,294.787354 
	C417.737457,282.300812 393.765961,278.255280 368.893433,281.237793 
	C358.325989,282.504944 348.044342,286.155396 337.632812,288.722717 
	C337.632812,288.722717 337.286194,288.811188 336.780029,288.931519 
	C331.375488,291.590088 326.477112,294.128296 321.578735,296.666504 
	C321.578705,296.666504 321.248566,296.799774 320.775024,296.953247 
	C299.910736,308.654175 284.939545,325.398285 273.835907,345.787201 
	C262.279053,367.008331 258.608948,390.036377 260.189331,413.738159 
	C260.803650,422.951050 264.612793,431.950928 266.966614,441.047821 
	C266.966614,441.047821 267.014252,441.518188 267.064209,442.126160 
	C269.856476,451.654541 273.153137,460.290436 279.701050,467.257599 
	C279.701050,467.257599 280.000000,467.002441 279.891754,467.478882 
	C281.745789,470.781219 283.708069,473.607147 285.670380,476.433075 
	C285.670380,476.433075 285.811981,476.753845 285.982849,477.174072 
	C286.966766,478.505524 287.779785,479.416779 288.592834,480.328033 
	C288.592834,480.328033 288.802856,480.175049 288.802734,480.584106 
	C290.103882,482.134583 291.405212,483.276001 292.706543,484.417419 
	C292.706543,484.417419 292.876190,484.734619 293.090027,485.119873 
	C293.772369,485.830017 294.240845,486.154907 294.709290,486.479797 
	C294.709290,486.479797 294.873016,486.769714 295.079224,487.154144 
	C296.226562,488.286835 297.167633,489.035065 298.108734,489.783325 
	C298.663910,490.374176 299.219116,490.964996 300.118591,492.035553 
	C318.165497,509.160553 339.077911,519.147217 363.089508,522.704712 
	C364.778259,522.848877 366.466980,522.992981 368.927002,523.333374 
	C378.783295,523.345703 387.868286,523.161865 396.953308,522.978027 
	C397.417603,523.003235 397.881927,523.028503 398.926086,523.073975 
	C399.505951,523.094238 399.971039,522.917969 399.971039,522.917969 
	C400.426178,522.917419 400.881348,522.916870 402.057739,522.897217 
	C408.977600,521.096191 415.372375,519.801392 421.323090,517.404236 
	C428.150543,514.653992 434.584320,510.926422 441.189117,507.623413 
	C441.189117,507.623413 441.664398,507.508148 442.223633,507.387207 
	C444.661591,505.936584 446.540314,504.606873 448.419006,503.277161 
	C448.419006,503.277161 448.750244,503.147095 449.184998,502.941040 
	C452.097137,500.844360 454.574585,498.953766 457.052002,497.063171 
	C457.052002,497.063171 457.003632,497.001221 457.380585,497.006409 
	C459.360229,495.880493 461.062378,494.865387 462.545349,493.594513 
	C465.829987,490.779633 468.591278,490.610657 471.720215,494.119873 
	C474.414673,497.141907 477.773956,499.571198 480.839264,502.262573 
	C480.891022,502.564972 481.034698,502.814423 481.574615,503.431885 
	C484.861786,506.657471 487.844635,509.462128 490.827484,512.266785 
	C490.910004,512.576782 491.090454,512.811523 491.685883,513.369934 
	C502.362152,524.126526 512.721436,534.484192 523.080688,544.841858 
	C523.080688,544.841858 523.080017,544.928345 523.186401,545.216309 
	C523.875305,545.975586 524.457825,546.446899 525.040344,546.918152 
	C525.040344,546.918152 525.018433,546.981201 525.120361,547.309692 
	C526.595215,550.263672 530.614929,551.761292 528.696045,555.789612 
	C528.138916,556.248474 527.581787,556.707336 526.590393,557.474548 
	C525.486084,558.541626 524.816101,559.300354 524.146057,560.059021 
	C523.872620,560.264771 523.599182,560.470520 522.870850,560.948364 
	C521.498962,562.075073 520.582092,562.929749 519.665222,563.784424 
	C519.665222,563.784424 519.299744,563.899658 518.836548,564.081055 
	C509.920502,570.513062 501.467743,576.763733 493.014984,583.014404 
	C492.486298,583.243042 491.957611,583.471619 490.935913,583.892151 
	C490.005493,584.412659 489.568024,584.741211 489.130554,585.069824 
	C488.583862,585.315247 488.037140,585.560608 487.032715,586.025391 
	C486.233093,586.352234 485.996277,586.572632 485.864532,586.905884 
	C485.864532,586.905884 485.411621,587.001099 484.877258,587.170349 
	C476.390472,591.084106 468.531647,595.046997 460.457550,598.507568 
	C453.332367,601.561340 445.967041,604.054749 438.707764,606.795593 
	C438.707764,606.795593 438.320496,606.819824 437.760803,606.880920 
	C431.815399,608.358337 426.429718,609.774658 421.044067,611.191040 
	C420.275513,611.233826 419.506989,611.276611 418.162354,611.358154 
	C417.252380,611.467041 417.060883,611.671021 417.011780,612.008728 
	C417.011780,612.008728 417.000000,612.000000 416.558380,611.979065 
	C409.490662,612.592957 402.863068,613.212402 396.238770,613.865601 
	C377.705261,615.692871 359.350769,613.602539 341.002075,611.366699 
	C340.253021,611.248474 339.503998,611.130188 338.070587,610.811279 
	C326.578735,607.425110 315.771240,604.239685 304.963745,601.054260 
	C304.963745,601.054260 304.997864,601.000366 304.805786,600.707275 
	C301.078186,599.007202 297.421143,597.843262 294.030182,596.147217 
	C284.269592,591.265259 274.616455,586.168396 264.921082,581.156006 
	C264.921082,581.156006 264.912842,581.082764 264.733887,580.790710 
	C260.772522,577.944397 256.990082,575.390198 253.207611,572.835999 
	C253.207611,572.835999 253.155304,572.850403 253.067657,572.512573 
	C250.630737,570.584167 248.281433,568.993530 245.932129,567.402893 
	C245.932129,567.402893 245.662048,567.033508 245.348145,566.684692 
	C244.706299,566.208191 244.378387,566.080627 244.050476,565.953064 
	C244.050461,565.953064 244.008133,565.992676 243.915009,565.654724 
	C236.202652,557.943726 228.583420,550.570618 220.964188,543.197571 
	C220.964188,543.197571 220.762787,542.884277 220.478775,542.478027 
	C216.482422,537.696533 212.770081,533.321289 209.057755,528.945984 
	C209.057755,528.945984 209.000534,529.000000 208.988800,528.623108 
	C206.444366,524.730286 203.911652,521.214417 201.378952,517.698486 
	C201.378952,517.698486 201.095810,517.883240 201.173203,517.432068 
	C195.927643,507.238159 190.604675,497.495422 185.281723,487.752686 
	C185.281723,487.752686 184.999878,487.942688 185.131317,487.467560 
	C180.720032,472.236053 175.308319,457.675476 171.924957,442.657898 
	C169.467255,431.749054 169.692429,420.235809 168.721375,408.992035 
	C168.747711,403.990051 168.774063,398.988068 168.881226,393.076691 
	C169.553680,383.788605 170.145340,375.409882 170.737000,367.031189 
	C170.804733,366.572357 170.872482,366.113525 171.096405,364.976135 
	C172.097946,360.405304 172.624496,356.409729 173.846558,352.639587 
	C178.036606,339.713104 182.470505,326.865662 186.811432,313.988098 
	C186.975845,313.651428 187.140259,313.314758 187.594803,312.478516 
	C195.168655,299.950073 202.136566,287.713501 209.858017,275.972504 
	C214.282898,269.244171 219.931900,263.320892 225.029800,257.035156 
	C225.029800,257.035156 225.001831,257.001984 225.328995,256.938721 
	C226.429276,255.912048 227.202393,254.948669 227.975525,253.985291 
	C227.975525,253.985306 228.001221,254.001205 228.291931,253.930939 
	C229.043808,253.233627 229.504944,252.606598 229.966095,251.979553 
	C229.966095,251.979553 230.000763,252.001221 230.301575,251.921402 
	C231.407959,250.904404 232.213547,249.967224 233.019135,249.030029 
	C233.019135,249.030045 233.005417,249.004837 233.343445,248.933807 
	C239.003464,244.089035 244.325455,239.315292 249.647430,234.541565 
	C249.987915,234.341782 250.328400,234.141998 250.995117,233.703888 
	C251.580063,233.361420 251.682175,233.172562 251.627747,232.898956 
	C251.955566,232.702164 252.283371,232.505356 253.101425,232.015549 
	C259.802826,227.576065 266.014008,223.429611 272.225159,219.283142 
	C272.225159,219.283127 271.999237,219.019867 272.467072,219.087067 
	C278.994232,215.801544 285.053528,212.448837 291.112854,209.096130 
	C291.518707,209.010239 291.924591,208.924347 292.808075,208.734802 
	C293.632050,208.398193 293.978394,208.165222 294.638000,207.854385 
	C295.297852,207.525681 295.644440,207.274872 296.317444,206.971069 
	C296.958282,206.626221 297.272705,206.334366 297.658234,206.172058 
	C297.729370,206.301636 298.011414,206.212997 298.405212,206.194290 
	C305.980774,203.550003 313.162537,200.924408 320.344299,198.298828 
	C320.344299,198.298813 320.714325,198.220718 321.274963,198.130646 
	C333.540863,195.612274 345.246185,193.183990 356.951477,190.755707 
z"/>
<path fill="#FFFFFF" opacity="1.000000" stroke="none" 
	d="
M541.723083,350.537659 
	C566.373901,342.224640 589.308716,351.645660 603.735962,369.519440 
	C619.080933,388.530273 617.551758,422.675171 598.890076,440.990540 
	C579.705383,459.819214 552.629761,460.865265 532.251160,449.109619 
	C503.853882,432.728363 497.383759,390.878021 519.416687,366.692322 
	C525.723755,359.769104 532.930420,354.489075 541.723083,350.537659 
z"/>
<path fill="#FCEDBA" opacity="1.000000" stroke="none" 
	d="
M338.051880,288.809814 
	C348.044342,286.155396 358.325989,282.504944 368.893433,281.237793 
	C393.765961,278.255280 417.737457,282.300812 439.702118,294.787354 
	C447.860931,299.425507 455.508972,305.152710 462.725616,311.178833 
	C466.441772,314.281921 468.518250,314.358368 471.731567,311.104431 
	C483.174744,299.516663 494.762085,288.071045 506.318909,276.595856 
	C512.918823,270.042633 519.565186,263.536255 526.515320,256.930298 
	C525.783752,258.475677 524.968140,260.337341 523.634521,261.687256 
	C507.147797,278.375305 490.600128,295.003235 474.016327,311.594879 
	C472.625671,312.986206 470.780426,313.911896 469.291260,315.218964 
	C467.449829,316.835144 466.116791,316.844910 464.240417,314.984131 
	C460.618988,311.392822 457.023285,307.553955 452.747223,304.894592 
	C445.729340,300.530060 438.185852,297.008179 430.848999,293.159515 
	C408.131348,281.242767 384.243530,279.023560 359.408783,284.514343 
	C352.446808,286.053619 345.451141,287.440277 338.051880,288.809814 
z"/>
<path fill="#FCEDBA" opacity="1.000000" stroke="none" 
	d="
M267.027161,440.632660 
	C264.612793,431.950928 260.803650,422.951050 260.189331,413.738159 
	C258.608948,390.036377 262.279053,367.008331 273.835907,345.787201 
	C284.939545,325.398285 299.910736,308.654175 320.657593,297.087097 
	C315.050079,301.976990 308.894257,306.673767 303.166718,311.844940 
	C294.058868,320.068085 285.473145,328.852722 279.789032,339.908081 
	C274.965088,349.290436 269.822327,358.614014 266.189941,368.468353 
	C263.592255,375.515686 262.706940,383.351044 262.066010,390.920197 
	C261.379791,399.024017 261.341797,407.272766 262.023010,415.373993 
	C262.574829,421.936188 264.614807,428.372864 265.988922,434.866455 
	C266.365875,436.647888 266.722046,438.433685 267.027161,440.632660 
z"/>
<path fill="#FCEDBA" opacity="1.000000" stroke="none" 
	d="
M495.967133,222.503906 
	C488.603302,218.906509 481.203766,214.852631 473.650299,211.109344 
	C457.201233,202.957657 439.751099,197.984848 421.812469,194.179672 
	C401.246521,189.817184 380.582794,189.971451 359.352356,190.739594 
	C360.894867,190.091415 362.881378,189.196289 364.900391,189.115662 
	C387.099609,188.229233 409.233521,188.927200 430.899414,194.280792 
	C441.586090,196.921463 451.990204,200.701675 462.530762,203.938324 
	C474.896332,207.735382 485.176483,215.328888 495.967133,222.503906 
z"/>
<path fill="#FEF2C3" opacity="1.000000" stroke="none" 
	d="
M224.636169,257.025513 
	C219.931900,263.320892 214.282898,269.244171 209.858017,275.972504 
	C202.136566,287.713501 195.168655,299.950073 187.612732,312.195190 
	C187.740356,307.901428 188.260925,303.713348 191.697617,299.956177 
	C195.206161,296.120453 197.468338,291.169678 200.483078,286.851562 
	C205.290649,279.965454 210.275620,273.203308 215.172501,266.379395 
	C216.803894,264.106018 218.223007,261.650452 220.072128,259.574768 
	C221.110855,258.408752 222.829971,257.848846 224.636169,257.025513 
z"/>
<path fill="#FEF2C3" opacity="1.000000" stroke="none" 
	d="
M168.522171,409.352661 
	C169.692429,420.235809 169.467255,431.749054 171.924957,442.657898 
	C175.308319,457.675476 180.720032,472.236053 185.271149,487.367920 
	C184.098404,487.051056 182.194595,486.609100 181.853897,485.625610 
	C179.711670,479.441925 178.189972,473.038422 175.951752,466.893860 
	C171.032608,453.389221 168.414368,439.489105 168.095535,425.155365 
	C167.981140,420.012238 168.236404,414.860901 168.522171,409.352661 
z"/>
<path fill="#FCEDBA" opacity="1.000000" stroke="none" 
	d="
M362.914154,522.397583 
	C339.077911,519.147217 318.165497,509.160553 300.379211,492.199280 
	C301.862732,492.698975 303.697388,493.222961 304.955170,494.376160 
	C315.604828,504.140259 328.128998,510.591431 341.633820,515.284119 
	C348.614319,517.709778 355.700409,519.831421 362.914154,522.397583 
z"/>
<path fill="#FEF2C3" opacity="1.000000" stroke="none" 
	d="
M341.229065,611.631042 
	C359.350769,613.602539 377.705261,615.692871 396.238770,613.865601 
	C402.863068,613.212402 409.490662,612.592957 416.562317,611.984558 
	C415.791321,612.645630 414.603882,613.765198 413.353699,613.840271 
	C400.317688,614.623352 387.274170,615.674194 374.227356,615.752502 
	C365.003540,615.807800 355.764465,614.558105 346.549194,613.707397 
	C344.810547,613.546936 343.151703,612.521606 341.229065,611.631042 
z"/>
<path fill="#FCEDBA" opacity="1.000000" stroke="none" 
	d="
M527.203735,256.823914 
	C530.754333,252.696350 529.520386,249.703995 525.263367,246.474945 
	C515.880310,239.357574 506.811462,231.826080 497.467163,224.176605 
	C500.257782,225.268143 503.566010,226.169571 506.066620,228.111160 
	C514.901672,234.971039 523.505371,242.133850 532.039185,249.367813 
	C532.730347,249.953720 532.781555,252.379150 532.152344,253.201950 
	C531.006287,254.700455 529.126343,255.637619 527.203735,256.823914 
z"/>
<path fill="#FEF2C3" opacity="1.000000" stroke="none" 
	d="
M186.458054,314.020264 
	C182.470505,326.865662 178.036606,339.713104 173.846558,352.639587 
	C172.624496,356.409729 172.097946,360.405304 171.069885,364.628357 
	C170.213852,361.056335 170.034393,357.684174 171.750534,353.454224 
	C176.320068,342.191223 179.335434,330.302216 183.125336,318.713348 
	C183.680283,317.016388 185.090286,315.599091 186.458054,314.020264 
z"/>
<path fill="#FEF2C3" opacity="1.000000" stroke="none" 
	d="
M439.119629,606.863159 
	C445.967041,604.054749 453.332367,601.561340 460.457550,598.507568 
	C468.531647,595.046997 476.390472,591.084106 484.689819,587.306091 
	C483.393829,588.830688 481.994598,590.845764 480.068512,591.873108 
	C467.247498,598.712036 453.861328,604.114380 439.119629,606.863159 
z"/>
<path fill="#FEF2C3" opacity="1.000000" stroke="none" 
	d="
M523.076416,544.490845 
	C512.721436,534.484192 502.362152,524.126526 491.899628,513.445923 
	C492.937622,513.698792 494.317993,514.032593 495.183197,514.887695 
	C503.987671,523.589844 512.725586,532.359802 521.422241,541.169800 
	C522.188599,541.946228 522.532227,543.139954 523.076416,544.490845 
z"/>
<path fill="#FEF2C3" opacity="1.000000" stroke="none" 
	d="
M265.006836,581.479248 
	C274.616455,586.168396 284.269592,591.265259 294.030182,596.147217 
	C297.421143,597.843262 301.078186,599.007202 304.781158,600.727600 
	C302.981262,600.812012 300.750244,601.106262 299.089325,600.269287 
	C288.277802,594.820923 277.584076,589.138367 266.875824,583.487000 
	C266.179108,583.119324 265.682343,582.372803 265.006836,581.479248 
z"/>
<path fill="#FEF2C3" opacity="1.000000" stroke="none" 
	d="
M185.249466,488.140503 
	C190.604675,497.495422 195.927643,507.238159 201.306366,517.327881 
	C200.250031,516.754395 198.935501,515.994446 198.058273,514.887817 
	C191.847885,507.053711 187.349228,498.361023 185.249466,488.140503 
z"/>
<path fill="#FCEDBA" opacity="1.000000" stroke="none" 
	d="
M356.657074,190.554901 
	C345.246185,193.183990 333.540863,195.612274 321.423218,198.013290 
	C327.282990,193.171341 335.139526,194.153534 342.222748,192.350037 
	C346.791107,191.186890 351.175079,187.458267 356.657074,190.554901 
z"/>
<path fill="#FEF2C3" opacity="1.000000" stroke="none" 
	d="
M440.994720,507.404358 
	C434.584320,510.926422 428.150543,514.653992 421.323090,517.404236 
	C415.372375,519.801392 408.977600,521.096191 402.388184,522.805542 
	C408.574493,520.411255 415.264984,518.361938 421.694916,515.686462 
	C427.433777,513.298523 432.873016,510.194519 438.478333,507.476288 
	C439.143036,507.153961 440.021149,507.271606 440.994720,507.404358 
z"/>
<path fill="#FEF2C3" opacity="1.000000" stroke="none" 
	d="
M220.958069,543.559937 
	C228.583420,550.570618 236.202652,557.943726 243.929718,565.629822 
	C241.428497,564.353394 238.534424,563.088684 236.272430,561.103638 
	C232.164307,557.498596 228.329056,553.561462 224.593597,549.563232 
	C223.089859,547.953735 222.148972,545.818359 220.958069,543.559937 
z"/>
<path fill="#FEF2C3" opacity="1.000000" stroke="none" 
	d="
M305.058685,601.385864 
	C315.771240,604.239685 326.578735,607.425110 337.690613,610.832764 
	C336.536285,611.546936 334.856537,612.773804 333.654358,612.412354 
	C325.445312,609.944031 317.315125,607.203979 309.215149,604.391235 
	C307.730835,603.875793 306.500946,602.627563 305.058685,601.385864 
z"/>
<path fill="#FEF2C3" opacity="1.000000" stroke="none" 
	d="
M493.392975,583.025391 
	C501.467743,576.763733 509.920502,570.513062 518.705811,564.221191 
	C515.825439,567.432556 512.965088,571.171875 509.312592,573.817749 
	C504.455109,577.336548 498.980469,580.003479 493.392975,583.025391 
z"/>
<path fill="#FEF2C3" opacity="1.000000" stroke="none" 
	d="
M480.829956,501.908020 
	C477.773956,499.571198 474.414673,497.141907 471.720215,494.119873 
	C468.591278,490.610657 465.829987,490.779633 462.545349,493.594513 
	C461.062378,494.865387 459.360229,495.880493 457.407776,497.035400 
	C458.548889,493.247131 464.429169,488.972107 468.074097,489.124573 
	C468.881042,489.158356 469.973999,489.204926 470.429352,489.705658 
	C473.963043,493.591370 477.372650,497.589874 480.829956,501.908020 
z"/>
<path fill="#FCEDBA" opacity="1.000000" stroke="none" 
	d="
M279.710114,466.878571 
	C273.153137,460.290436 269.856476,451.654541 267.147278,442.347473 
	C268.567749,444.673950 269.955933,447.386597 271.342377,450.100159 
	C274.135162,455.566376 276.926971,461.033051 279.710114,466.878571 
z"/>
<path fill="#FEF2C3" opacity="1.000000" stroke="none" 
	d="
M396.604065,522.770203 
	C387.868286,523.161865 378.783295,523.345703 369.351349,523.308228 
	C373.355316,522.755310 377.702698,522.222778 382.058044,522.146545 
	C386.786438,522.063782 391.522217,522.405701 396.604065,522.770203 
z"/>
<path fill="#FEF2C3" opacity="1.000000" stroke="none" 
	d="
M271.838806,219.203613 
	C266.014008,223.429611 259.802826,227.576065 253.249847,231.765839 
	C257.284760,224.942383 264.208710,221.799484 271.838806,219.203613 
z"/>
<path fill="#FEF2C3" opacity="1.000000" stroke="none" 
	d="
M249.265808,234.455322 
	C244.325455,239.315292 239.003464,244.089035 233.355896,248.941269 
	C237.082352,242.802399 241.723145,237.222122 249.265808,234.455322 
z"/>
<path fill="#FCEDBA" opacity="1.000000" stroke="none" 
	d="
M319.926758,198.199356 
	C313.162537,200.924408 305.980774,203.550003 298.406677,205.928848 
	C298.018463,205.505280 298.022552,205.328461 298.026642,205.151627 
	C305.187500,202.801041 312.348328,200.450455 319.926758,198.199356 
z"/>
<path fill="#FEF2C3" opacity="1.000000" stroke="none" 
	d="
M290.713104,209.060944 
	C285.053528,212.448837 278.994232,215.801544 272.583130,219.215286 
	C277.335632,214.231171 283.121735,210.388794 290.713104,209.060944 
z"/>
<path fill="#FCEDBA" opacity="1.000000" stroke="none" 
	d="
M321.981018,296.749084 
	C326.477112,294.128296 331.375488,291.590088 336.646271,289.050293 
	C333.532562,294.261261 327.673859,295.012238 321.981018,296.749084 
z"/>
<path fill="#FEF2C3" opacity="1.000000" stroke="none" 
	d="
M170.468353,367.260345 
	C170.145340,375.409882 169.553680,383.788605 168.824280,392.617310 
	C168.426895,392.875153 167.927353,392.662109 167.942001,392.493713 
	C168.666794,384.156555 169.435684,375.823242 170.468353,367.260345 
z"/>
<path fill="#FEF2C3" opacity="1.000000" stroke="none" 
	d="
M209.084290,529.300171 
	C212.770081,533.321289 216.482422,537.696533 220.311005,542.397217 
	C216.655090,538.366516 212.882950,534.010437 209.084290,529.300171 
z"/>
<path fill="#FEF2C3" opacity="1.000000" stroke="none" 
	d="
M253.088104,573.119812 
	C256.990082,575.390198 260.772522,577.944397 264.697479,580.796387 
	C260.805054,579.545288 256.744354,578.055603 252.785660,576.331665 
	C252.479614,576.198364 252.890793,574.418274 253.088104,573.119812 
z"/>
<path fill="#FEF2C3" opacity="1.000000" stroke="none" 
	d="
M421.361420,611.379761 
	C426.429718,609.774658 431.815399,608.358337 437.594299,606.980530 
	C432.551270,608.535583 427.115021,610.052063 421.361420,611.379761 
z"/>
<path fill="#FEF2C3" opacity="1.000000" stroke="none" 
	d="
M201.342590,518.063965 
	C203.911652,521.214417 206.444366,524.730286 209.016251,528.594727 
	C206.472351,525.438660 203.889282,521.934082 201.342590,518.063965 
z"/>
<path fill="#FEF2C3" opacity="1.000000" stroke="none" 
	d="
M490.828674,511.911560 
	C487.844635,509.462128 484.861786,506.657471 481.771057,503.529907 
	C484.718750,505.990112 487.774323,508.773193 490.828674,511.911560 
z"/>
<path fill="#FEF2C3" opacity="1.000000" stroke="none" 
	d="
M456.678223,497.023285 
	C454.574585,498.953766 452.097137,500.844360 449.283508,502.792908 
	C451.399658,500.894989 453.852020,498.939209 456.678223,497.023285 
z"/>
<path fill="#FEF2C3" opacity="1.000000" stroke="none" 
	d="
M529.018311,555.682983 
	C530.614929,551.761292 526.595215,550.263672 525.151855,547.298706 
	C530.426758,549.861877 531.381470,551.793396 529.018311,555.682983 
z"/>
<path fill="#FCEDBA" opacity="1.000000" stroke="none" 
	d="
M285.692108,476.060242 
	C283.708069,473.607147 281.745789,470.781219 279.741943,467.605530 
	C281.704865,470.066284 283.709351,472.876831 285.692108,476.060242 
z"/>
<path fill="#FEF2C3" opacity="1.000000" stroke="none" 
	d="
M245.967255,567.726685 
	C248.281433,568.993530 250.630737,570.584167 253.073868,572.486206 
	C250.779282,571.215271 248.390839,569.632874 245.967255,567.726685 
z"/>
<path fill="#FEF2C3" opacity="1.000000" stroke="none" 
	d="
M448.044006,503.213379 
	C446.540314,504.606873 444.661591,505.936584 442.425293,507.248871 
	C443.934784,505.870850 445.801880,504.510223 448.044006,503.213379 
z"/>
<path fill="#FCEDBA" opacity="1.000000" stroke="none" 
	d="
M292.718689,484.062744 
	C291.405212,483.276001 290.103882,482.134583 288.710815,480.675903 
	C289.989594,481.475159 291.360199,482.591644 292.718689,484.062744 
z"/>
<path fill="#FEF2C3" opacity="1.000000" stroke="none" 
	d="
M297.639465,205.139618 
	C298.022552,205.328461 298.018463,205.505280 298.012878,205.947556 
	C298.011414,206.212997 297.729370,206.301636 297.373810,206.303558 
	C296.675842,206.544998 296.333435,206.784515 295.991028,207.024048 
	C295.644440,207.274872 295.297852,207.525681 294.384338,207.854141 
	C293.475586,207.928467 293.133728,207.925140 292.791870,207.921829 
	C294.278687,206.990433 295.765503,206.059021 297.639465,205.139618 
z"/>
<path fill="#FCEDBA" opacity="1.000000" stroke="none" 
	d="
M288.661285,479.973663 
	C287.779785,479.416779 286.966766,478.505524 286.120758,477.282288 
	C286.968445,477.853302 287.849091,478.736298 288.661285,479.973663 
z"/>
<path fill="#FEF2C3" opacity="1.000000" stroke="none" 
	d="
M232.690613,249.065582 
	C232.213547,249.967224 231.407959,250.904404 230.291016,251.903900 
	C230.773804,251.011215 231.567947,250.056183 232.690613,249.065582 
z"/>
<path fill="#FEF2C3" opacity="1.000000" stroke="none" 
	d="
M227.642975,254.023132 
	C227.202393,254.948669 226.429276,255.912048 225.345947,256.952209 
	C225.793976,256.039642 226.552216,255.050323 227.642975,254.023132 
z"/>
<path fill="#FEF2C3" opacity="1.000000" stroke="none" 
	d="
M520.010376,563.797729 
	C520.582092,562.929749 521.498962,562.075073 522.728760,561.164551 
	C522.146240,562.009460 521.250854,562.910217 520.010376,563.797729 
z"/>
<path fill="#FCEDBA" opacity="1.000000" stroke="none" 
	d="
M298.054565,489.471741 
	C297.167633,489.035065 296.226562,488.286835 295.224243,487.235901 
	C296.108795,487.675537 297.054596,488.417847 298.054565,489.471741 
z"/>
<path fill="#FEF2C3" opacity="1.000000" stroke="none" 
	d="
M524.486816,560.044556 
	C524.816101,559.300354 525.486084,558.541626 526.460815,557.715698 
	C526.119568,558.442383 525.473572,559.236267 524.486816,560.044556 
z"/>
<path fill="#FEF2C3" opacity="1.000000" stroke="none" 
	d="
M524.991089,546.623718 
	C524.457825,546.446899 523.875305,545.975586 523.229614,545.215332 
	C523.758301,545.393982 524.350098,545.861633 524.991089,546.623718 
z"/>
<path fill="#FEF2C3" opacity="1.000000" stroke="none" 
	d="
M229.660080,252.031067 
	C229.504944,252.606598 229.043808,253.233627 228.283936,253.918060 
	C228.441483,253.344498 228.897766,252.713531 229.660080,252.031067 
z"/>
<path fill="#FCEDBA" opacity="1.000000" stroke="none" 
	d="
M294.647797,486.187561 
	C294.240845,486.154907 293.772369,485.830017 293.242340,485.215515 
	C293.649292,485.249084 294.117798,485.572205 294.647797,486.187561 
z"/>
<path fill="#FEF2C3" opacity="1.000000" stroke="none" 
	d="
M489.413879,585.070435 
	C489.568024,584.741211 490.005493,584.412659 490.726288,584.093506 
	C490.572174,584.425659 490.134705,584.748352 489.413879,585.070435 
z"/>
<path fill="#FCEDBA" opacity="1.000000" stroke="none" 
	d="
M292.770996,208.075287 
	C293.133728,207.925140 293.475586,207.928467 294.071106,207.932022 
	C293.978394,208.165222 293.632050,208.398193 293.076111,208.573486 
	C292.866547,208.515793 292.750092,208.228760 292.770996,208.075287 
z"/>
<path fill="#FEF2C3" opacity="1.000000" stroke="none" 
	d="
M244.182312,566.180664 
	C244.378387,566.080627 244.706299,566.208191 245.141846,566.585754 
	C244.937683,566.693237 244.625916,566.550781 244.182312,566.180664 
z"/>
<path fill="#FEF2C3" opacity="1.000000" stroke="none" 
	d="
M486.110779,586.894165 
	C485.996277,586.572632 486.233093,586.352234 486.824646,586.244629 
	C486.935547,586.570007 486.696472,586.782654 486.110779,586.894165 
z"/>
<path fill="#FEF2C3" opacity="1.000000" stroke="none" 
	d="
M251.470154,232.912933 
	C251.682175,233.172562 251.580063,233.361420 251.148651,233.446167 
	C250.984299,233.190292 251.096512,233.023666 251.470154,232.912933 
z"/>
<path fill="#FEF2C3" opacity="1.000000" stroke="none" 
	d="
M399.876984,522.803345 
	C399.971039,522.917969 399.505951,523.094238 399.270874,523.015076 
	C399.212006,522.646240 399.461060,522.563843 399.876984,522.803345 
z"/>
<path fill="#FEF2C3" opacity="1.000000" stroke="none" 
	d="
M417.207336,612.012695 
	C417.060883,611.671021 417.252380,611.467041 417.794128,611.473999 
	C417.877441,611.802917 417.677704,611.958069 417.207336,612.012695 
z"/>
<path fill="#FCEDBA" opacity="1.000000" stroke="none" 
	d="
M296.317444,206.971069 
	C296.333435,206.784515 296.675842,206.544998 297.302673,206.173981 
	C297.272705,206.334366 296.958282,206.626221 296.317444,206.971069 
z"/>
</svg>